<?xml version="1.0" encoding="UTF-8" standalone="no"?>
<!DOCTYPE svg PUBLIC "-//W3C//DTD SVG 1.1//EN" "http://www.w3.org/Graphics/SVG/1.1/DTD/svg11.dtd">
<svg width="100%" height="100%" viewBox="0 0 127 59" version="1.1" xmlns="http://www.w3.org/2000/svg" xmlns:xlink="http://www.w3.org/1999/xlink" xml:space="preserve" xmlns:serif="http://www.serif.com/" style="fill-rule:evenodd;clip-rule:evenodd;stroke-linejoin:round;stroke-miterlimit:1.41421;">
    <g>
        <path d="M13.6,5.2C-6.5,17.6 4.9,54.3 4.9,55.2C30.4,38.1 91.9,62.2 112.5,51.1C132.8,40.1 121.5,4.2 121.5,4.2C90,20.1 33,-6.8 13.6,5.2Z" style="fill:none;"/>
        <path d="M122.6,3C122.6,3 122.5,3 122.6,3L113.8,0.1C113.7,0.1 113.6,0.1 113.5,0.1L113.2,0C106,6.5 92.9,7.1 78.1,6C71.6,5.5 64.8,4.7 58,3.8C53.2,3.3 48.3,2.7 43.5,2.3C43.3,2.3 43,2.3 42.7,2.2C42.2,2.2 41.6,2.1 41.1,2.1C35.7,1.6 30.6,1.3 25.9,1.3C12.7,1.6 2.8,8 0.4,26.3L0.4,26.7C-1.4,41.3 3,56.7 3.5,57C3.6,57 3.6,57.1 3.7,57.1L11,58.5L11.1,58.5C11.2,58.5 11.3,58.5 11.4,58.4C21.4,49.3 44.8,51.7 67.3,54C78.9,55.3 90.8,56.5 100.6,56.1C102.2,56 103.7,55.9 105.2,55.7C117.7,53.8 124.3,45.9 125.8,31.3C127.5,16.2 122.9,3.2 122.6,3M13.3,5.8C32.7,-6.1 89.8,20.5 121,4.8C121,4.8 132.3,40.1 112,50.9C91.5,61.9 29.9,38.1 4.4,55C4.6,54.2 -6.7,18 13.3,5.8M84,54.6C84.4,54.6 85,54.7 85.4,54.7C85,54.7 84.4,54.6 84,54.6" style="fill:white;fill-rule:nonzero;"/>
        <path d="M30.5,29.8C32.1,28.7 33,27.1 33,25C33,20.8 30.3,18.6 25,18.6L13.6,18.6L13.6,43.2L25.4,43.2C29.4,43.2 34.1,41.3 34.1,35.9C34.1,32.9 32.9,30.9 30.5,29.8M24.7,38.1L19.7,38.1L19.7,23.6L24,23.6C26.7,23.6 27,24.7 27,25.8C27,27.3 26.1,28.1 24.4,28.1L22.9,28.1L20.8,32.6L24.8,32.6C27,32.6 27.9,33.5 27.9,35.4C28.1,36.6 27.6,38.1 24.7,38.1" style="fill:white;fill-rule:nonzero;"/>
        <rect x="35.6" y="18.6" width="6.2" height="24.6" style="fill:white;"/>
        <path d="M56.6,32.4L53.5,18.5L43.8,18.5L43.8,43L49.9,43L49.9,28L53.5,43L59.7,43L63.3,27.8L63.3,43L69.4,43L69.4,18.5L59.7,18.5L56.6,32.4Z" style="fill:white;fill-rule:nonzero;"/>
        <path d="M88.6,29.9C90.2,28.8 91.1,27.2 91.1,25.1C91.1,20.9 88.4,18.7 83.1,18.7L71.7,18.7L71.7,43.3L83.5,43.3C87.5,43.3 92.2,41.4 92.2,36C92.2,33.1 90.9,31 88.6,29.9M82.8,38.2L77.8,38.2L77.8,23.9L82.1,23.9C84.8,23.9 85.1,25 85.1,26.1C85.1,27.6 84.2,28.4 82.5,28.4L81.1,28.4L78.8,32.9L82.8,32.9C85,32.9 85.9,33.8 85.9,35.7C86.1,36.8 85.7,38.2 82.8,38.2" style="fill:white;fill-rule:nonzero;"/>
        <path d="M105.3,18.3C98.5,18.3 93,23.8 93,30.6C93,37.4 98.5,42.9 105.3,42.9C112.1,42.9 117.6,37.4 117.6,30.6C117.7,23.9 112.2,18.3 105.3,18.3M105.3,37.1C101.8,37.1 98.8,34.2 98.8,30.6C98.8,27 101.7,24.1 105.3,24.1C108.9,24.1 111.7,27 111.7,30.6C111.8,34.3 108.8,37.1 105.3,37.1" style="fill:white;fill-rule:nonzero;"/>
        <g>
            <path d="M21.7,15.4C21.2,15.7 20.6,15.9 20,16C19.4,16.1 18.8,16.2 18.2,16.2C17.6,16.2 17,16.1 16.4,15.9C15.9,15.7 15.4,15.4 15,15.1C14.6,14.7 14.3,14.3 14.1,13.8C13.9,13.3 13.8,12.7 13.8,12.1C13.8,11.5 13.9,10.9 14.1,10.4C14.3,9.9 14.6,9.5 15,9.1C15.4,8.7 15.9,8.5 16.4,8.3C17.1,8.1 17.7,8 18.3,8C19,8 19.6,8.1 20.1,8.2C20.6,8.4 21.1,8.6 21.5,9L20.3,10.3C20.1,10.1 19.8,9.9 19.5,9.8C19.2,9.7 18.8,9.6 18.3,9.6C17.9,9.6 17.6,9.7 17.3,9.8C17,9.9 16.7,10.1 16.5,10.3C16.3,10.5 16.1,10.8 16,11.1C15.9,11.4 15.8,11.7 15.8,12.1C15.8,12.5 15.9,12.8 16,13.1C16.1,13.4 16.3,13.7 16.5,13.9C16.7,14.1 17,14.3 17.3,14.4C17.6,14.5 18,14.6 18.3,14.6C18.7,14.6 19,14.6 19.3,14.5C19.6,14.4 19.8,14.3 20,14.2L20,12.9L18.5,12.9L18.5,11.3L21.7,11.3L21.7,15.4Z" style="fill:white;fill-rule:nonzero;"/>
            <path d="M22.8,8.2L26,8.2C26.4,8.2 26.8,8.2 27.2,8.3C27.6,8.4 27.9,8.5 28.2,8.7C28.5,8.9 28.7,9.1 28.9,9.4C29.1,9.7 29.1,10.1 29.1,10.5C29.1,11 29,11.5 28.7,11.9C28.4,12.3 28,12.5 27.4,12.6L29.5,15.9L27.3,15.9L25.6,12.8L24.7,12.8L24.7,15.9L22.9,15.9L22.9,8.2L22.8,8.2ZM24.6,11.4L26.2,11.4C26.4,11.4 26.5,11.4 26.7,11.3C26.8,11.2 27,11.2 27.1,11C27.2,10.9 27.2,10.7 27.2,10.5C27.2,10.3 27.2,10.1 27.1,10C27,9.9 26.9,9.8 26.8,9.7C26.7,9.6 26.5,9.6 26.4,9.6C26.2,9.6 26.1,9.6 25.9,9.6L24.7,9.6L24.7,11.4L24.6,11.4Z" style="fill:white;fill-rule:nonzero;"/>
            <path d="M36.7,13C36.7,13.5 36.6,13.9 36.5,14.3C36.4,14.7 36.1,15 35.9,15.3C35.6,15.6 35.3,15.8 34.8,16C34.3,16.1 33.8,16.2 33.3,16.2C32.7,16.2 32.2,16.1 31.8,16C31.4,15.8 31,15.6 30.7,15.3C30.4,15 30.2,14.7 30.1,14.3C30,13.9 29.9,13.5 29.9,13L29.9,8.2L31.7,8.2L31.7,12.9C31.7,13.1 31.7,13.4 31.8,13.6C31.9,13.8 32,14 32.1,14.1C32.2,14.2 32.4,14.4 32.6,14.4C32.8,14.5 33,14.5 33.3,14.5C33.5,14.5 33.8,14.5 34,14.4C34.2,14.3 34.4,14.2 34.5,14.1C34.6,13.9 34.8,13.8 34.8,13.6C34.9,13.4 34.9,13.2 34.9,12.9L34.9,8.2L36.7,8.2L36.7,13Z" style="fill:white;fill-rule:nonzero;"/>
            <path d="M37.9,8.2L40.9,8.2C41.3,8.2 41.7,8.2 42.1,8.3C42.5,8.4 42.8,8.5 43.1,8.7C43.4,8.9 43.6,9.1 43.8,9.4C44,9.7 44,10.1 44,10.5C44,11 43.9,11.3 43.8,11.6C43.6,11.9 43.4,12.2 43.2,12.3C42.9,12.5 42.6,12.6 42.2,12.7C41.8,12.8 41.4,12.8 41,12.8L39.7,12.8L39.7,15.8L37.9,15.8L37.9,8.2ZM39.7,11.5L41.4,11.5C41.5,11.5 41.7,11.4 41.8,11.4C41.9,11.3 42,11.2 42.1,11.1C42.2,11 42.2,10.8 42.2,10.6C42.2,10.4 42.2,10.2 42.1,10.1C42,10 41.9,9.9 41.7,9.8C41.5,9.7 41.4,9.7 41.2,9.7C41,9.7 40.8,9.7 40.7,9.7L39.8,9.7L39.7,11.5Z" style="fill:white;fill-rule:nonzero;"/>
            <path d="M44.7,12.1C44.7,11.5 44.8,10.9 45,10.4C45.2,9.9 45.5,9.5 45.9,9.1C46.3,8.7 46.8,8.5 47.3,8.3C47.8,8.1 48.4,8 49.1,8C49.7,8 50.3,8.1 50.9,8.3C51.4,8.5 51.9,8.8 52.3,9.1C52.7,9.5 53,9.9 53.2,10.4C53.4,10.9 53.5,11.5 53.5,12.1C53.5,12.7 53.4,13.3 53.2,13.8C53,14.3 52.7,14.7 52.3,15.1C51.9,15.5 51.4,15.7 50.9,15.9C50.4,16.1 49.8,16.2 49.1,16.2C48.5,16.2 47.9,16.1 47.3,15.9C46.8,15.7 46.3,15.4 45.9,15.1C45.5,14.7 45.2,14.3 45,13.8C44.8,13.3 44.7,12.7 44.7,12.1M46.6,12.1C46.6,12.5 46.7,12.8 46.8,13.1C46.9,13.4 47.1,13.7 47.3,13.9C47.5,14.1 47.8,14.3 48.1,14.4C48.4,14.5 48.8,14.6 49.1,14.6C49.5,14.6 49.8,14.5 50.1,14.4C50.4,14.3 50.7,14.1 50.9,13.9C51.1,13.7 51.3,13.4 51.4,13.1C51.5,12.8 51.6,12.5 51.6,12.1C51.6,11.7 51.5,11.4 51.4,11.1C51.3,10.8 51.1,10.5 50.9,10.3C50.7,10.1 50.4,9.9 50.1,9.8C49.8,9.7 49.4,9.6 49.1,9.6C48.7,9.6 48.4,9.7 48.1,9.8C47.8,9.9 47.5,10.1 47.3,10.3C47.1,10.5 46.9,10.8 46.8,11.1C46.6,11.4 46.6,11.7 46.6,12.1" style="fill:white;fill-rule:nonzero;"/>
        </g>
        <path d="M120.5,55.2C120.5,54.8 120.6,54.5 120.7,54.2C120.8,53.9 121,53.6 121.3,53.4C121.5,53.2 121.8,53 122.1,52.8C122.4,52.7 122.8,52.6 123.1,52.6C123.5,52.6 123.8,52.7 124.1,52.8C124.4,52.9 124.7,53.1 124.9,53.3C125.1,53.5 125.3,53.8 125.5,54.1C125.6,54.4 125.7,54.8 125.7,55.1C125.7,55.5 125.6,55.8 125.5,56.1C125.4,56.4 125.2,56.7 124.9,56.9C124.7,57.1 124.4,57.3 124.1,57.5C123.8,57.6 123.4,57.7 123.1,57.7C122.7,57.7 122.4,57.6 122.1,57.5C121.8,57.4 121.5,57.2 121.3,57C121.1,56.8 120.9,56.5 120.7,56.2C120.6,55.9 120.5,55.6 120.5,55.2M121,55.2C121,55.5 121.1,55.8 121.2,56.1C121.3,56.4 121.5,56.6 121.7,56.8C121.9,57 122.1,57.2 122.4,57.3C122.7,57.4 123,57.5 123.3,57.5C123.6,57.5 123.9,57.4 124.2,57.3C124.5,57.2 124.7,57 124.9,56.8C125.1,56.6 125.3,56.4 125.4,56.1C125.5,55.8 125.6,55.5 125.6,55.2C125.6,54.9 125.5,54.6 125.4,54.3C125.3,54 125.1,53.8 124.9,53.6C124.7,53.4 124.5,53.2 124.2,53.1C123.9,53 123.6,52.9 123.3,52.9C123,52.9 122.7,53 122.4,53.1C122.1,53.2 121.9,53.4 121.7,53.6C121.5,53.8 121.3,54 121.2,54.3C121,54.6 121,54.9 121,55.2M122.2,53.7L123.3,53.7C123.7,53.7 123.9,53.8 124.1,53.9C124.3,54 124.4,54.3 124.4,54.6C124.4,54.9 124.3,55.1 124.2,55.2C124,55.3 123.9,55.4 123.6,55.4L124.5,56.7L124,56.7L123.2,55.4L122.7,55.4L122.7,56.7L122.3,56.7L122.3,53.7L122.2,53.7ZM122.6,55.1L123.4,55.1C123.5,55.1 123.6,55.1 123.7,55C123.8,55 123.8,54.9 123.9,54.9C123.9,54.8 124,54.7 124,54.6C124,54.5 124,54.4 123.9,54.3C123.9,54.2 123.8,54.2 123.7,54.2C123.6,54.2 123.6,54.1 123.5,54.1C123.4,54.1 123.3,54.1 123.3,54.1L122.6,54.1L122.6,55.1Z" style="fill:rgb(38,53,118);fill-rule:nonzero;"/>
    </g>
</svg>
