<?xml version="1.0" encoding="UTF-8" standalone="no"?>
<!DOCTYPE svg PUBLIC "-//W3C//DTD SVG 1.1//EN" "http://www.w3.org/Graphics/SVG/1.1/DTD/svg11.dtd">
<svg width="100%" height="100%" viewBox="0 0 1511 743" version="1.1" xmlns="http://www.w3.org/2000/svg" xmlns:xlink="http://www.w3.org/1999/xlink" xml:space="preserve" xmlns:serif="http://www.serif.com/" style="fill-rule:evenodd;clip-rule:evenodd;stroke-linejoin:round;stroke-miterlimit:1.41421;">
    <g transform="matrix(1,0,0,1,-416.474,-239.318)">
        <g id="Layer-7" serif:id="Layer 7" transform="matrix(4.16667,0,0,4.16667,0,0)">
            <g transform="matrix(1,0,0,1,382.054,89.3315)">
                <path d="M0,-10.439L-7.014,-10.857C-3.256,-6.375 -0.245,-2.407 1.807,0.418C2.088,-2.271 1.863,-6.005 0,-10.439" style="fill:white;fill-rule:nonzero;"/>
            </g>
            <g transform="matrix(1,0,0,1,396.186,88.0483)">
                <path d="M0,-8.314L-6.573,-8.706C-7.276,-5.021 -7.135,-1.912 -6.755,0.392C-5.106,-1.835 -2.813,-4.842 0,-8.314" style="fill:white;fill-rule:nonzero;"/>
            </g>
            <g transform="matrix(1,0,0,1,406.201,92.451)">
                <path d="M0,-12.12C-0.05,-12.094 -0.1,-12.073 -0.149,-12.047C-7.148,-8.301 -10.439,-3.483 -11.979,0C-8.377,-1.473 -2.982,-3.544 3.523,-5.629L3.523,-11.91L0,-12.12Z" style="fill:white;fill-rule:nonzero;"/>
            </g>
            <g transform="matrix(1,0,0,1,383.861,66.5349)">
                <path d="M0,23.215C0.352,19.849 -0.079,14.85 -3.54,8.884C-7.038,2.855 -13.303,0.95 -15.833,0.411C-17.396,0.077 -18.678,0 -19.646,0.038C-10.713,9.042 -3.759,18.04 0,23.215" style="fill:white;fill-rule:nonzero;"/>
            </g>
            <g transform="matrix(1,0,0,1,422.331,90.8179)">
                <path d="M0,-10.776C-1.229,-11.294 -4.322,-12.409 -8.112,-12.409C-10.641,-12.409 -13.478,-11.914 -16.279,-10.414C-23.278,-6.668 -26.569,-1.85 -28.108,1.633C-21.771,-0.959 -9.891,-5.403 3.85,-8.515C3.046,-9.196 1.797,-10.019 0,-10.776" style="fill:white;fill-rule:nonzero;"/>
            </g>
            <g transform="matrix(1,0,0,1,389.431,57.4364)">
                <path d="M0,31.004C4.668,24.694 14.427,12.221 26.883,0.245C26.219,0.105 25.341,0 24.249,0C23.56,0 22.784,0.042 21.924,0.143C16.199,0.813 8.617,3.982 4.507,10.865C-0.617,19.446 -0.718,26.653 0,31.004" style="fill:white;fill-rule:nonzero;"/>
            </g>
            <g transform="matrix(1,0,0,1,99.9537,146.597)">
                <path d="M0,-5.989C19.062,1.098 45.886,9.243 74.758,12.349C148.091,20.233 189.603,10.814 226.228,2.5C254.548,-3.928 279.799,-9.657 314.528,-7.277C247.466,-26.222 182.88,-17.411 162.83,-13.846C83.465,0.262 30.268,-1.871 0,-5.989" style="fill:white;fill-rule:nonzero;"/>
            </g>
            <g transform="matrix(1,0,0,1,409.724,92.095)">
                <path d="M0,39.735L0,0C-5.9,1.944 -10.773,3.832 -14,5.155L-14,36.482C-9.361,37.444 -4.69,38.526 0,39.735" style="fill:white;fill-rule:nonzero;"/>
            </g>
            <g transform="matrix(1,0,0,1,151.123,67.2059)">
                <path d="M0,70.338L0,24.823L27.93,16.594L27.93,69.534C32.449,69.286 37.115,68.975 41.93,68.595L41.93,14.448L228.752,25.582C226.213,22.093 222.128,16.736 216.961,10.854L35.951,0.067L34.73,-0.006L-14,14.355L-14,70.142C-9.566,70.275 -4.896,70.344 0,70.338" style="fill:white;fill-rule:nonzero;"/>
            </g>
            <g transform="matrix(1,0,0,1,206.167,161.417)">
                <path d="M0,-0.023C0.014,-0.017 0.027,-0.011 0.04,-0.005C0.078,-0.003 0.117,-0.002 0.154,0C0.104,-0.007 0.051,-0.015 0,-0.023" style="fill:white;fill-rule:nonzero;"/>
            </g>
            <g transform="matrix(1,0,0,1,338.976,174.701)">
                <path d="M0,-21.133C-10.759,-18.855 -20.92,-17.018 -30.521,-15.543C-52.954,-10.843 -78.451,-6.78 -112.027,-6.78C-113.546,-6.78 -115.096,-6.796 -116.648,-6.814C-103.608,-2.074 -88.315,2.264 -72.247,4.324C-12.33,12.003 21.593,2.827 51.522,-5.267C73.707,-11.265 94.921,-16.998 123.516,-14.852C68.888,-33.136 16.339,-24.592 0,-21.133" style="fill:white;fill-rule:nonzero;"/>
            </g>
            <g transform="matrix(1,0,0,1,191.944,214.245)">
                <path d="M0,-1.715C2.041,-1.715 3.614,-2.174 4.717,-3.093C5.819,-4.012 6.37,-5.246 6.37,-6.799L6.37,-6.922C6.37,-8.637 5.798,-9.912 4.655,-10.75C3.511,-11.587 1.939,-12.005 -0.062,-12.005L-7.842,-12.005L-7.842,-1.715L0,-1.715ZM-19.725,-22.297L0.551,-22.297C3.858,-22.297 6.655,-21.888 8.943,-21.071C11.229,-20.254 13.087,-19.111 14.517,-17.641C17.049,-15.191 18.314,-11.861 18.314,-7.657L18.314,-7.534C18.314,-4.227 17.519,-1.489 15.926,0.674C14.333,2.839 12.189,4.493 9.494,5.636L19.724,20.582L6.003,20.582L-2.635,7.597L-2.757,7.597L-7.842,7.597L-7.842,20.582L-19.725,20.582L-19.725,-22.297Z" style="fill:white;fill-rule:nonzero;"/>
            </g>
            <g transform="matrix(1,0,0,1,392.308,234.827)">
                <path d="M0,-42.879L11.111,-42.879L28.79,-20.214L28.79,-42.879L40.489,-42.879L40.489,0L30.055,0L11.699,-23.523L11.699,0L0,0L0,-42.879Z" style="fill:white;fill-rule:nonzero;"/>
            </g>
            <g transform="matrix(1,0,0,1,241.499,208.487)">
                <path d="M0,9.495L-4.778,-2.695L-9.616,9.495L0,9.495ZM-10.413,-16.845L1.041,-16.845L19.296,26.34L6.555,26.34L3.431,18.683L-13.108,18.683L-16.171,26.34L-28.668,26.34L-10.413,-16.845Z" style="fill:white;fill-rule:nonzero;"/>
            </g>
            <g transform="matrix(1,0,0,1,281.804,191.213)">
                <path d="M0,44.349C-3.839,44.349 -7.483,43.752 -10.934,42.562C-14.385,41.37 -17.437,39.582 -20.092,37.2L-13.477,29.281C-9.188,32.71 -4.554,34.426 0.429,34.426C2.021,34.426 3.236,34.17 4.073,33.662C4.91,33.153 5.33,32.428 5.33,31.491L5.33,31.369C5.33,30.92 5.227,30.523 5.023,30.176C4.818,29.829 4.441,29.494 3.89,29.167C3.339,28.842 2.604,28.526 1.685,28.219C0.766,27.913 -0.429,27.597 -1.898,27.272C-4.187,26.743 -6.31,26.161 -8.27,25.53C-10.229,24.898 -11.936,24.082 -13.384,23.082C-14.835,22.084 -15.978,20.841 -16.814,19.353C-17.652,17.866 -18.07,16.021 -18.07,13.819L-18.07,13.698C-18.07,11.701 -17.693,9.865 -16.937,8.194C-16.183,6.523 -15.079,5.076 -13.629,3.852C-12.18,2.629 -10.435,1.682 -8.392,1.009C-6.351,0.337 -4.043,0 -1.47,0C2.206,0 5.482,0.483 8.361,1.45C11.24,2.414 13.844,3.843 16.172,5.732L10.229,14.15C8.27,12.762 6.258,11.71 4.196,10.995C2.134,10.281 0.143,9.924 -1.776,9.924C-3.206,9.924 -4.278,10.189 -4.992,10.719C-5.707,11.249 -6.064,11.901 -6.064,12.675L-6.064,12.797C-6.064,13.287 -5.952,13.715 -5.728,14.081C-5.504,14.449 -5.115,14.785 -4.563,15.091C-4.013,15.397 -3.257,15.703 -2.297,16.008C-1.338,16.315 -0.122,16.63 1.348,16.955C3.798,17.486 6.013,18.107 7.994,18.82C9.974,19.534 11.659,20.4 13.047,21.419C14.436,22.439 15.498,23.671 16.232,25.119C16.968,26.566 17.335,28.288 17.335,30.285L17.335,30.408C17.335,32.609 16.916,34.566 16.08,36.278C15.242,37.99 14.067,39.448 12.558,40.65C11.047,41.853 9.229,42.77 7.105,43.402C4.981,44.034 2.613,44.349 0,44.349" style="fill:white;fill-rule:nonzero;"/>
            </g>
            <g transform="matrix(1,0,0,1,301.466,235.134)">
                <path d="M0,-43.186L13.293,-43.186L23.032,-16.049L32.772,-43.186L45.819,-43.186L28.423,0L17.396,0L0,-43.186Z" style="fill:white;fill-rule:nonzero;"/>
            </g>
            <g transform="matrix(1,0,0,1,149.187,201.504)">
                <path d="M0,23.767C1.838,23.767 3.246,23.43 4.227,22.756C5.207,22.082 5.697,21.113 5.697,19.847L5.697,19.724C5.697,18.54 5.228,17.601 4.288,16.907C3.348,16.213 1.878,15.866 -0.122,15.866L-9.188,15.866L-9.188,23.767L0,23.767ZM-1.715,7.535C0.123,7.535 1.521,7.228 2.48,6.616C3.439,6.002 3.92,5.064 3.92,3.797L3.92,3.675C3.92,2.492 3.471,1.582 2.572,0.95C1.674,0.317 0.326,0 -1.47,0L-9.188,0L-9.188,7.535L-1.715,7.535ZM-20.766,-9.556L1.187,-9.556C3.878,-9.556 6.183,-9.229 8.099,-8.576C10.015,-7.922 11.604,-6.962 12.869,-5.697C13.724,-4.839 14.396,-3.838 14.887,-2.695C15.375,-1.551 15.621,-0.245 15.621,1.225L15.621,1.348C15.621,3.839 14.999,5.85 13.762,7.381C12.521,8.913 10.948,10.087 9.039,10.904C11.661,11.761 13.74,12.996 15.275,14.61C16.812,16.223 17.58,18.479 17.58,21.378L17.58,21.5C17.58,25.217 16.161,28.117 13.323,30.199C10.484,32.282 6.493,33.323 1.348,33.323L-20.766,33.323L-20.766,-9.556Z" style="fill:white;fill-rule:nonzero;"/>
            </g>
            <g transform="matrix(1,0,0,1,351.451,234.827)">
                <path d="M0,-42.879L34.426,-42.879L34.426,-32.771L11.7,-32.771L11.7,-26.278L32.282,-26.278L32.282,-16.906L11.7,-16.906L11.7,-10.107L34.732,-10.107L34.732,0L0,0L0,-42.879Z" style="fill:white;fill-rule:nonzero;"/>
            </g>
        </g>
    </g>
</svg>
