<?xml version="1.0" encoding="UTF-8" standalone="no"?>
<!DOCTYPE svg PUBLIC "-//W3C//DTD SVG 1.1//EN" "http://www.w3.org/Graphics/SVG/1.1/DTD/svg11.dtd">
<svg width="100%" height="100%" viewBox="0 0 400 225" version="1.1" xmlns="http://www.w3.org/2000/svg" xmlns:xlink="http://www.w3.org/1999/xlink" xml:space="preserve" xmlns:serif="http://www.serif.com/" style="fill-rule:evenodd;clip-rule:evenodd;stroke-linejoin:round;stroke-miterlimit:1.41421;">
    <g transform="matrix(1,0,0,1,-3299.74,-2713.86)">
        <path d="M3457.35,2815.13C3463.83,2815.13 3471.54,2814.32 3477.51,2812.08C3486.14,2808.83 3492.45,2801.32 3492.19,2789.76C3491.91,2777.17 3481.28,2771.29 3470.78,2771.29C3467.21,2771.29 3466.31,2771.08 3463.42,2771.49L3457.41,2815.15L3457.35,2815.13ZM3526.04,2881.56C3526.04,2881.56 3514.54,2882.74 3507.4,2882.74C3498.44,2882.74 3495.03,2880.24 3487.4,2869.16C3483.28,2863.16 3477.78,2852.88 3471.49,2841.32C3468.23,2835.64 3466.13,2831.37 3459.66,2831.37L3455.13,2831.37L3448.26,2881.56L3418.19,2881.56L3437.07,2756.87C3437.07,2756.87 3459.19,2753.63 3472.18,2753.63C3505.89,2753.63 3521.61,2767.44 3522.09,2788.34C3522.48,2805.39 3513.2,2816.72 3492.72,2824.55" style="fill:white;fill-rule:nonzero;stroke:black;stroke-width:0.29px;"/>
        <g transform="matrix(1,0,0,1,3299.74,2713.86)">
            <path d="M212.326,40.574C231.503,15.88 261.477,-0.011 295.165,-0.011C353.06,-0.011 400,46.929 400,104.824L399.989,104.813C342.099,104.813 295.165,151.742 295.165,209.637C264.565,209.637 237.027,196.526 217.863,175.613C225.703,175.469 236.76,174.338 236.76,174.338L200.216,111.795C222.673,103.211 232.854,90.78 232.424,72.075C232.109,58.159 225.634,47.11 212.326,40.574ZM338.377,41.907L255.981,41.907L237.028,167.698L267.012,167.698L274.139,115.689L302.27,115.689C311.422,115.689 316.041,114.674 321.325,97.219L276.679,97.219L281.422,62.606L319.322,62.6C328.479,62.6 333.098,61.435 338.377,41.907ZM197.916,65.616C198.949,67.942 199.559,70.61 199.626,73.63C199.833,82.698 196.357,89.496 190.899,93.937C191.921,84.021 194.325,74.516 197.916,65.616Z" style="fill:white;fill-rule:nonzero;"/>
        </g>
        <path d="M3327,2756.91C3327,2756.91 3349.35,2753.66 3360.61,2753.66C3394.77,2753.66 3408.59,2768.06 3408.81,2783.89C3408.85,2802.57 3394.89,2810.28 3384,2813.53C3403.73,2819.82 3409.89,2829.56 3410.08,2842.35C3410.26,2871.43 3381.13,2882.81 3347.42,2882.81C3326.49,2882.81 3308.39,2880.06 3308.39,2880.06L3326.98,2756.91L3327,2756.91ZM3379.04,2843.75C3378.87,2830.97 3367.16,2824.47 3353.1,2824.47C3351.09,2824.47 3345.94,2824.85 3345.94,2824.85L3340.39,2865.28C3340.39,2865.28 3348.56,2866.3 3352.34,2866.3C3367.52,2866.3 3379.02,2858.17 3379.05,2843.96L3379.05,2843.75L3379.04,2843.75ZM3380.71,2787.36C3380.57,2777.41 3372.22,2771.13 3361.28,2771.13C3359.27,2771.13 3353.25,2771.53 3353.25,2771.53L3348.18,2808.47L3361.57,2807.66C3372.26,2806.24 3380.87,2798.73 3380.71,2787.57" style="fill:white;fill-rule:nonzero;"/>
        <path d="M3374.8,2912.87C3377.22,2912.87 3379.41,2913.57 3380.91,2914.98C3380.79,2916.14 3379.9,2917.99 3378.67,2917.49C3377.98,2917.14 3376.26,2916.41 3375.02,2916.41C3372.6,2916.41 3371.76,2917.8 3371.74,2919.34C3371.74,2920.84 3373.01,2921.79 3375.43,2923.53C3378.12,2925.49 3380.49,2927.64 3380.48,2930.71C3380.47,2935.56 3376.58,2938.05 3372.01,2938.05C3369.32,2938.05 3367.28,2937.36 3366.02,2936.36C3365.6,2936.02 3365.06,2935.33 3365.06,2934.55C3364.99,2933.56 3365.49,2932.51 3366.11,2932.02C3366.95,2932.86 3369.72,2934.4 3372.07,2934.4C3374.37,2934.4 3375.48,2933.64 3375.49,2931.83C3375.49,2930.48 3374.31,2929.13 3371.97,2927.44C3368.36,2924.8 3367.02,2923.06 3367.02,2920.14C3367.03,2915.91 3370.12,2912.87 3374.77,2912.87" style="fill:white;fill-rule:nonzero;"/>
        <path d="M3387.69,2913.46L3392.89,2913.46L3389.22,2937.49L3384.01,2937.49" style="fill:white;fill-rule:nonzero;"/>
        <path d="M3401.17,2934.03L3404.32,2913.47L3399.11,2913.47L3395.43,2937.49L3405.31,2937.49C3407.04,2937.49 3407.86,2937.49 3408.47,2937.3C3409.17,2937.09 3409.94,2935.88 3410.24,2934.03" style="fill:white;fill-rule:nonzero;"/>
        <path d="M3328.35,2924.9C3329.46,2924.9 3330.69,2924.75 3331.73,2924.33C3333.23,2923.71 3334.33,2922.29 3334.33,2920.1C3334.32,2917.71 3332.5,2916.59 3330.69,2916.59C3330.08,2916.59 3329.92,2916.55 3329.43,2916.63L3328.4,2924.9L3328.35,2924.9ZM3324.91,2913.89C3324.91,2913.89 3329.23,2913.25 3330.97,2913.25C3336.78,2913.25 3339.44,2915.86 3339.47,2919.83C3339.48,2923.07 3337.8,2925.26 3334.14,2926.76C3334.96,2927.6 3338.23,2934.88 3340.16,2937.42C3340.16,2937.42 3338.35,2937.8 3337.12,2937.8C3335.47,2937.8 3334.58,2937.42 3333.41,2935.45C3332.75,2934.29 3331.63,2932.06 3330.59,2929.87C3330.04,2928.79 3329.69,2927.99 3328.57,2927.99L3327.93,2927.99L3326.69,2937.49L3321.28,2937.49" style="fill:white;fill-rule:nonzero;"/>
        <path d="M3452.57,2912.87C3458.42,2912.87 3461.26,2917.45 3461.2,2923.75C3461.14,2930.4 3457.71,2938.05 3449.74,2938.05C3443.76,2938.05 3440.81,2933.83 3440.87,2927.41C3440.93,2920.14 3444.97,2912.87 3452.53,2912.87L3452.52,2912.87L3452.57,2912.87ZM3451.92,2916.36C3448.76,2916.36 3445.94,2920.59 3445.87,2927.67C3445.84,2931.51 3447.1,2934.55 3450.04,2934.55C3454.13,2934.55 3456.12,2928.79 3456.17,2923.52C3456.2,2920.25 3455.39,2916.36 3451.96,2916.36" style="fill:white;fill-rule:nonzero;"/>
        <path d="M3475.61,2912.87C3481.46,2912.87 3484.3,2917.45 3484.24,2923.75C3484.18,2930.4 3480.75,2938.05 3472.79,2938.05C3466.81,2938.05 3463.85,2933.83 3463.91,2927.41C3463.98,2920.14 3468.01,2912.87 3475.58,2912.87L3475.55,2912.87L3475.61,2912.87ZM3474.96,2916.36C3471.8,2916.36 3468.97,2920.59 3468.91,2927.67C3468.88,2931.51 3470.14,2934.55 3473.08,2934.55C3477.17,2934.55 3479.16,2928.79 3479.21,2923.52C3479.23,2920.25 3478.43,2916.36 3475,2916.36" style="fill:white;fill-rule:nonzero;"/>
        <path d="M3489.63,2914.05C3489.63,2914.05 3494.04,2913.36 3495.62,2913.36C3503.08,2913.36 3507.37,2916.7 3507.18,2924.61C3506.99,2933.03 3500.91,2937.87 3493.66,2937.87C3491,2937.87 3486.15,2936.88 3486.15,2936.88L3489.64,2914.05L3489.63,2914.05ZM3502.09,2924.8C3502.2,2919.8 3500.36,2916.88 3495.19,2916.88C3494.63,2916.88 3493.88,2916.99 3493.88,2916.99L3491.37,2934.17C3491.37,2934.17 3492.82,2934.37 3493.77,2934.37C3498.51,2934.37 3501.95,2930.68 3502.09,2924.83" style="fill:white;fill-rule:nonzero;"/>
        <path d="M3518.25,2912.87C3520.67,2912.87 3522.86,2913.57 3524.36,2914.98C3524.23,2916.14 3523.35,2917.99 3522.12,2917.49C3521.44,2917.14 3519.71,2916.41 3518.48,2916.41C3516.05,2916.41 3515.2,2917.8 3515.2,2919.34C3515.2,2920.84 3516.46,2921.79 3518.88,2923.53C3521.57,2925.49 3523.94,2927.64 3523.93,2930.71C3523.92,2935.56 3520.03,2938.05 3515.45,2938.05C3512.77,2938.05 3510.73,2937.36 3509.47,2936.36C3509.05,2936.02 3508.51,2935.33 3508.51,2934.55C3508.43,2933.56 3508.94,2932.51 3509.56,2932.02C3510.4,2932.86 3513.16,2934.4 3515.51,2934.4C3517.81,2934.4 3518.93,2933.64 3518.94,2931.83C3518.94,2930.48 3517.75,2929.13 3515.41,2927.44C3511.8,2924.8 3510.46,2923.06 3510.46,2920.14C3510.48,2915.91 3513.56,2912.87 3518.21,2912.87" style="fill:white;fill-rule:nonzero;"/>
        <path d="M3303.26,2913.84C3303.26,2913.84 3307.13,2913.22 3309.07,2913.22C3314.95,2913.22 3317.29,2915.95 3317.29,2918.96C3317.24,2922.49 3314.81,2923.96 3312.92,2924.58C3316.3,2925.76 3317.34,2927.62 3317.33,2930.04C3317.29,2935.54 3312.28,2937.84 3306.47,2937.84C3304.47,2937.84 3299.74,2936.96 3299.74,2936.96L3303.23,2913.81L3303.26,2913.84ZM3311.97,2930.33C3311.97,2927.91 3309.98,2926.67 3307.55,2926.67C3307.2,2926.67 3306.32,2926.74 3306.32,2926.74L3305.25,2934.4C3305.25,2934.4 3306.64,2934.59 3307.3,2934.59C3309.91,2934.59 3311.92,2933.05 3311.97,2930.37L3311.97,2930.31L3311.97,2930.33ZM3312.45,2919.64C3312.45,2917.75 3311.03,2916.56 3309.14,2916.56C3308.8,2916.56 3307.76,2916.64 3307.76,2916.64L3306.78,2923.65L3309.09,2923.49C3310.94,2923.22 3312.45,2921.8 3312.45,2919.68" style="fill:white;fill-rule:nonzero;"/>
        <path d="M3349.18,2931.29L3346.68,2937.48L3341.7,2937.48L3352.55,2913.46L3356.76,2913.46L3362.88,2937.48L3358,2937.48L3356.56,2931.29L3349.26,2931.29L3349.18,2931.29ZM3355.74,2927.8L3353.85,2919.73L3350.59,2927.8" style="fill:white;fill-rule:nonzero;"/>
        <path d="M3437.48,2924.15C3436.52,2927.45 3435.63,2927.65 3434.06,2927.65L3429.26,2927.65L3427.79,2937.49L3422.59,2937.49L3426.26,2913.46L3440.14,2913.46C3439.85,2915.35 3439.07,2916.55 3438.37,2916.8C3437.95,2916.96 3436.91,2916.96 3435.15,2916.96L3430.88,2916.96L3429.8,2924.14" style="fill:white;fill-rule:nonzero;"/>
    </g>
</svg>
