<?xml version="1.0" encoding="UTF-8" standalone="no"?>
<!DOCTYPE svg PUBLIC "-//W3C//DTD SVG 1.1//EN" "http://www.w3.org/Graphics/SVG/1.1/DTD/svg11.dtd">
<svg width="100%" height="100%" viewBox="0 0 478 111" version="1.1" xmlns="http://www.w3.org/2000/svg" xmlns:xlink="http://www.w3.org/1999/xlink" xml:space="preserve" xmlns:serif="http://www.serif.com/" style="fill-rule:evenodd;clip-rule:evenodd;stroke-linejoin:round;stroke-miterlimit:1.41421;">
    <g>
        <path d="M390.39,40.507C388.904,44.119 387.405,47.97 385.789,51.71C372.351,40.256 352.941,38.395 335.897,42.503C325.566,44.862 314.492,53.326 312.501,64.523C310.634,75.843 312.876,87.415 322.083,94.508C335.147,104.465 355.054,104.587 370.856,100.983L375.088,99.367C375.088,96.315 375.032,89.823 375.032,78.46C371.802,78.46 367.748,78.712 364.382,79.08C364.382,76.464 364.634,73.73 364.382,71.12C372.853,72.367 382.495,71.777 389.497,71.986L389.497,103.967C371.305,108.801 348.462,111.184 328.304,107.197C314.988,104.71 300.18,95.503 296.697,81.321C293.338,68.257 297.195,54.818 308.017,46.6C325.313,33.664 349.329,32.546 371.108,35.403C377.829,36.275 384.426,37.774 390.39,40.507" style="fill:white;fill-rule:nonzero;"/>
        <path d="M476.624,35.956C475.875,38.818 476.495,41.25 476.495,44.112C469.155,42.995 461.066,42.872 453.474,42.872L419.134,42.872C419.134,64.16 419.011,57.552 419.011,64.892C437.173,65.021 455.341,64.775 473.632,64.523C473.135,67.133 473.135,69.621 473.509,72.115C455.341,71.488 437.302,72.115 419.134,72.115C419.134,98.379 419.011,90.904 419.134,99.859C430.33,100.11 441.405,99.859 452.608,99.736C460.943,99.613 469.61,99.693 477.822,98.446C477.822,101.308 477.251,105.386 478,108.12C406.457,108.12 462.859,108.12 404.351,108.12C404.351,82.747 404.241,59.646 404.37,35.761C434.36,35.76 408.736,35.956 476.624,35.956" style="fill:white;fill-rule:nonzero;"/>
        <path d="M281.743,37.239L281.743,109.261L275.804,109.261C253.281,91.351 229.634,72.986 206.988,55.69C206.951,60.272 206.969,77.169 206.969,108.524C203.855,108.278 199.691,108.027 196.448,108.524L196.448,37.049C196.325,36.939 204.414,37.049 204.746,37.049C206.773,37.049 249.104,70.37 271.252,87.42C271.295,60.273 271.252,66.027 271.252,37.239C274.618,37.614 278.506,37.368 281.743,37.239" style="fill:white;fill-rule:nonzero;"/>
        <path d="M179.926,36.938L179.926,81.075C179.926,91.154 172.893,100.73 163.441,105.085C151.243,110.687 136.312,111.559 122.375,109.311C112.302,107.696 100.853,103.218 96.744,92.396C95.374,88.656 94.754,84.675 94.625,80.45L94.767,36.958C103.63,38.026 101.763,37.566 109.231,36.958C109.231,73.491 108.998,66.882 109.502,81.813C109.748,89.282 113.918,97.623 121.755,100.356C131.582,103.715 143.903,104.213 153.982,100.983C160.327,98.986 166.303,93.016 168.164,86.543C169.036,83.313 169.282,79.83 169.534,76.341L169.534,37.099C175.798,37.872 176.265,37.565 179.926,36.938" style="fill:white;fill-rule:nonzero;"/>
        <path d="M58.417,76.469C45.604,71.991 31.465,73.883 17.068,73.871L16.982,102.241C37.226,102.308 38.755,102.351 49.21,101.602C55.309,101.104 61.531,98.494 64.645,92.886C66.88,89.035 66.137,83.182 63.398,79.828C62.029,78.207 60.285,77.089 58.417,76.469M50.211,44.739C24.218,44.543 27.669,44.487 16.964,44.739C16.964,62.668 16.866,46.139 16.866,66.887C27.688,67.009 39.506,67.384 50.211,65.394C55.186,64.522 61.279,61.906 62.778,56.181C63.521,53.079 62.895,49.965 60.536,47.853C57.674,45.488 53.939,44.77 50.211,44.739M71.236,41.877C75.714,44.739 77.458,49.966 76.463,55.064C74.971,63.025 66.384,67.508 59.788,69.744C67.005,70.991 74.971,72.49 79.074,79.455C82.556,85.425 81.813,94.264 77.084,99.49C67.877,109.563 53.94,108.697 40.876,109.317L0.038,109.262C0.037,71.93 0,68.238 0,36.938C23.217,36.938 27.437,37.018 41.373,37.018C51.207,37.147 62.778,36.772 71.236,41.877" style="fill:white;fill-rule:nonzero;"/>
        <path d="M139.554,0C133.259,0 127.454,2.107 122.799,5.645L156.31,5.645C151.66,2.107 145.855,0 139.554,0" style="fill:white;fill-rule:nonzero;"/>
        <path d="M167.242,27.683C167.242,26.54 167.168,25.422 167.027,24.317L112.08,24.317C111.951,25.422 111.871,26.541 111.871,27.683C111.871,28.647 111.92,29.599 112.012,30.533L167.094,30.533C167.193,29.599 167.242,28.646 167.242,27.683" style="fill:white;fill-rule:nonzero;"/>
        <path d="M139.554,55.371C146.163,55.371 152.219,53.056 156.979,49.204L122.135,49.204C126.895,53.056 132.951,55.371 139.554,55.371" style="fill:white;fill-rule:nonzero;"/>
        <path d="M162.273,11.873L116.84,11.873C115.501,13.783 114.402,15.871 113.579,18.089L165.535,18.089C164.712,15.871 163.606,13.783 162.273,11.873" style="fill:white;fill-rule:nonzero;"/>
        <path d="M113.401,36.754C114.169,38.972 115.201,41.06 116.478,42.977L162.63,42.977C163.907,41.06 164.945,38.972 165.713,36.754L113.401,36.754Z" style="fill:white;fill-rule:nonzero;"/>
    </g>
</svg>
