<?xml version="1.0" encoding="UTF-8" standalone="no"?>
<!DOCTYPE svg PUBLIC "-//W3C//DTD SVG 1.1//EN" "http://www.w3.org/Graphics/SVG/1.1/DTD/svg11.dtd">
<svg width="100%" height="100%" viewBox="0 0 213 96" version="1.1" xmlns="http://www.w3.org/2000/svg" xmlns:xlink="http://www.w3.org/1999/xlink" xml:space="preserve" xmlns:serif="http://www.serif.com/" style="fill-rule:evenodd;clip-rule:evenodd;stroke-linejoin:round;stroke-miterlimit:1.41421;">
    <g transform="matrix(1,0,0,1,-2.30916,-9.76996e-15)">
        <g transform="matrix(2.4938,0,0,2.4938,-161.366,-71.4585)">
            <g id="path6" transform="matrix(1,0,0,1,20.7106,44.1635)">
                <path d="M69.386,0C71.901,0 73.43,0.442 74.199,1.386C74.619,1.9 74.83,2.583 74.835,3.449C74.838,3.93 74.777,4.466 74.654,5.063L72.93,13.388C72.691,14.539 72.548,15.42 72.551,16.15C72.553,16.382 72.574,16.596 72.608,16.799C71.916,16.799 68.431,16.799 67.893,16.799C67.891,16.748 67.884,16.698 67.884,16.645C67.882,16.3 67.909,15.936 67.939,15.559L67.988,14.876L67.727,14.876L67.624,15.038C66.778,16.399 64.856,17.24 63.21,17.24C61.845,17.24 60.868,16.891 60.304,16.199C59.683,15.437 59.534,14.243 59.863,12.652C60.506,9.544 61.919,8.229 65.463,7.434C65.465,7.434 67.816,6.898 67.816,6.898C69.212,6.589 69.884,5.974 70.134,4.77C70.27,4.11 70.196,3.599 69.914,3.251C69.652,2.931 69.232,2.769 68.665,2.769C67.405,2.769 66.735,3.42 66.32,5.04C65.884,5.04 62.802,5.04 62.112,5.04C63.243,0.67 67.127,0 69.386,0ZM69.334,8.57C69.334,8.57 69.239,8.657 69.057,8.728C68.759,8.843 68.098,8.951 67.689,9.054C67.372,9.133 67.015,9.224 66.629,9.386C65.602,9.821 65.072,10.534 64.799,11.844C64.64,12.611 64.733,13.237 65.071,13.652C65.324,13.963 65.697,14.126 66.147,14.126C67.985,14.126 68.561,12.369 68.835,11.044L69.347,8.57L69.334,8.57L68.835,11.044L69.334,8.57Z" style="fill:white;"/>
            </g>
        </g>
        <g transform="matrix(2.4938,0,0,2.4938,-161.366,-71.4585)">
            <g id="path10" transform="matrix(1,0,0,1,45.9392,44.1635)">
                <path d="M61.007,15.329C60.011,14.108 59.816,12.187 60.503,8.765C62.001,1.315 64.833,0 67.297,0C68.468,0 70.233,0.434 70.44,2.489L70.473,2.809L70.815,2.809C70.815,2.809 71.215,0.876 71.303,0.444C71.767,0.444 75.197,0.444 75.883,0.444C75.716,1.246 72.481,16.799 72.481,16.799C71.674,20.706 69.165,22.652 64.563,22.652C60.299,22.652 59.667,20.138 59.571,19.359C59.534,19.064 59.634,18.192 59.634,18.192C60.124,18.192 63.467,18.192 64.091,18.192L64.091,18.195C64.093,18.592 64.123,19.178 64.257,19.343C64.442,19.571 64.595,19.838 65.302,19.838C66.241,19.838 67.139,19.567 67.578,17.448L68.336,13.778L67.97,13.778L67.869,13.951C66.956,15.531 65.257,16.33 63.464,16.33C62.36,16.33 61.555,16.005 61.007,15.329ZM65.555,8.403C65.053,10.828 65.075,11.76 65.565,12.362C65.809,12.663 66.173,12.806 66.677,12.806C68.069,12.806 68.749,11.961 69.457,8.548C69.962,6.104 70.014,4.552 69.531,3.956C69.293,3.667 68.946,3.523 68.466,3.523C67.028,3.523 66.26,4.991 65.555,8.403Z" style="fill:white;"/>
            </g>
        </g>
        <g transform="matrix(2.4938,0,0,2.4938,-161.366,-71.4585)">
            <g id="path14" transform="matrix(1,0,0,1,61.291,44.6076)">
                <path d="M67.876,0C67.713,0.789 64.603,15.832 64.493,16.355C64.024,16.355 60.234,16.355 59.534,16.355C59.699,15.565 62.813,0.522 62.921,0C63.39,0 67.181,0 67.876,0Z" style="fill:white;"/>
            </g>
        </g>
        <g transform="matrix(2.4938,0,0,2.4938,-161.366,-71.4585)">
            <g id="path18" transform="matrix(1,0,0,1,69.2675,39.1516)">
                <path d="M69.007,0C68.841,0.802 64.605,21.279 64.494,21.811C64.023,21.811 60.235,21.811 59.534,21.811C59.7,21.006 63.938,0.529 64.049,0C64.52,0 68.308,0 69.007,0Z" style="fill:white;"/>
            </g>
        </g>
        <g transform="matrix(2.4938,0,0,2.4938,-161.366,-71.4585)">
            <g id="path22" transform="matrix(1,0,0,1,77.2167,39.1516)">
                <path d="M69.008,0C68.84,0.802 64.603,21.279 64.491,21.811C64.023,21.811 60.23,21.811 59.534,21.811C59.702,21.006 63.939,0.529 64.049,0C64.52,0 68.311,0 69.008,0Z" style="fill:white;"/>
            </g>
        </g>
        <g transform="matrix(2.4938,0,0,2.4938,-161.366,-71.4585)">
            <g id="path26" transform="matrix(1,0,0,1,35.559,44.1635)">
                <path d="M72.093,0C70.468,0 68.534,1.137 67.59,2.965L67.492,3.154L67.129,3.154C67.129,3.154 67.566,1.045 67.689,0.444C67.596,0.444 67.448,0.444 67.264,0.444L67.264,0.442C66.726,0.442 63.24,0.442 62.547,0.442C62.581,0.646 62.602,0.86 62.604,1.093C62.607,1.618 62.532,2.224 62.401,2.952C61.482,7.393 59.658,16.199 59.534,16.799C60.232,16.799 64.023,16.799 64.496,16.799C64.812,15.262 66.36,7.774 66.36,7.774C66.827,5.521 68.148,4.472 70.513,4.472C70.922,4.472 71.28,4.495 71.633,4.547C71.743,4.016 72.436,0.67 72.574,0C72.334,0 72.093,0 72.093,0Z" style="fill:white;"/>
            </g>
        </g>
        <g transform="matrix(2.4938,0,0,2.4938,-161.366,-71.4585)">
            <g id="path30" transform="matrix(1,0,0,1,5.78041,39.0528)">
                <path d="M60.828,21.058C59.589,19.538 59.534,16.743 60.64,11.407C62.404,2.878 64.955,0 70.749,0C73.063,0 74.688,0.552 75.576,1.641C76.15,2.345 76.441,3.305 76.448,4.51C76.452,5.166 76.371,5.897 76.206,6.695C76.206,6.695 76.055,7.423 75.969,7.835C75.499,7.835 71.087,7.835 71.087,7.835C71.087,7.835 71.449,5.507 71.446,4.994C71.443,4.416 71.42,4.103 71.199,3.812C70.97,3.51 70.63,3.269 70.096,3.269C67.939,3.269 67.23,5.324 66.001,11.263C65.047,15.873 64.705,17.989 65.442,18.893C65.722,19.234 66.143,19.4 66.733,19.4C68.432,19.4 69.102,17.943 69.955,13.89C70.424,13.89 74.177,13.89 74.873,13.89C74.777,14.359 74.615,15.135 74.615,15.135C73.581,20.133 70.652,22.669 65.907,22.669C63.338,22.669 61.724,22.155 60.828,21.058Z" style="fill:white;"/>
            </g>
        </g>
        <g transform="matrix(2.4938,0,0,2.4938,-161.366,-71.4585)">
            <g id="path34" transform="matrix(1,0,0,1,87.6948,39.14)">
                <path d="M59.583,0L61.071,0L61.021,0.237L60.408,0.237L59.968,2.369L59.705,2.369L60.146,0.237L59.534,0.237L59.583,0Z" style="fill:white;"/>
            </g>
        </g>
        <g transform="matrix(2.4938,0,0,2.4938,-161.366,-71.4585)">
            <g id="path38" transform="matrix(1,0,0,1,89.0253,39.14)">
                <path d="M61.541,0L62.002,0L61.512,2.369L61.25,2.369L61.654,0.417C61.674,0.316 61.7,0.218 61.715,0.117L61.709,0.117C61.652,0.256 61.612,0.344 61.571,0.436L60.674,2.369L60.362,2.369L60.271,0.407C60.266,0.325 60.264,0.246 60.263,0.117L60.256,0.117C60.236,0.218 60.22,0.322 60.199,0.424L59.796,2.369L59.534,2.369L60.024,0L60.489,0L60.57,1.848C60.575,1.949 60.568,2.047 60.548,2.199L60.555,2.199C60.596,2.079 60.636,1.962 60.688,1.845L61.541,0Z" style="fill:white;"/>
            </g>
        </g>
        <g transform="matrix(2.4938,0,0,2.4938,-161.366,-71.4585)">
            <g id="path42" transform="matrix(1,0,0,1,33.2177,26.9409)">
                <path d="M96.374,15.737C96.764,6.748 85.925,0 75.809,2.099C65.699,4.196 60.812,12.999 59.534,15.719L61.188,15.719C63.402,11.996 65.643,9.106 69.462,8.029C71.889,7.345 73.795,7.502 78.488,10.12C80.65,11.326 85.542,14.953 90.797,15.677C93.08,15.993 96.374,15.737 96.374,15.737Z" style="fill:white;"/>
            </g>
        </g>
    </g>
</svg>
