<?xml version="1.0" encoding="UTF-8" standalone="no"?><!DOCTYPE svg PUBLIC "-//W3C//DTD SVG 1.1//EN" "http://www.w3.org/Graphics/SVG/1.1/DTD/svg11.dtd"><svg width="100%" height="100%" viewBox="0 0 215 227" version="1.1" xmlns="http://www.w3.org/2000/svg" xmlns:xlink="http://www.w3.org/1999/xlink" xml:space="preserve" xmlns:serif="http://www.serif.com/" style="fill-rule:evenodd;clip-rule:evenodd;stroke-linejoin:round;stroke-miterlimit:2;"><path d="M134.542,111.423l41.974,-41.973l-41.972,-41.971l10.133,-10.134l52.106,52.105l-52.106,52.106l-10.135,-10.133Zm-41.97,-41.972l14.492,-14.493l14.493,14.493l-14.493,14.492l-14.492,-14.492Zm-54.959,0l41.971,41.972l-10.133,10.133l-52.106,-52.105l52.107,-52.106l10.133,10.134l-41.972,41.972Zm107.064,-69.451l-18.806,18.806l-18.806,-18.806l-8.39,8.389l60.495,61.061l-33.299,33.3l-10.134,-10.134l23.165,-23.166l-69.45,-69.45l-69.452,69.451l69.451,69.452l18.806,-18.807l18.807,18.807l8.611,-8.613l-60.717,-60.839l33.3,-33.3l10.133,10.134l-23.165,23.166l69.451,69.452l69.451,-69.453l-69.451,-69.45Z" style="fill:#fff;"/><path d="M10.016,183.602c0.504,0.116 1.318,0.116 2.055,0.116c5.35,0.039 8.84,-2.908 8.84,-9.15c0.039,-5.428 -3.141,-8.297 -8.22,-8.297c-1.318,0 -2.171,0.116 -2.675,0.232l0,17.099Zm-5.933,-21.325c2.172,-0.349 5.002,-0.543 7.988,-0.543c4.963,0 8.18,0.892 10.701,2.792c2.714,2.016 4.42,5.234 4.42,9.848c0,5.002 -1.822,8.452 -4.343,10.585c-2.752,2.287 -6.94,3.373 -12.058,3.373c-3.063,0 -5.234,-0.194 -6.708,-0.387l0,-25.668Z" style="fill:#fff;fill-rule:nonzero;"/><path d="M36.927,183.873c0.582,0.078 1.28,0.078 2.288,0.078c2.675,0 5.04,-1.008 5.04,-3.761c0,-2.637 -2.365,-3.683 -5.312,-3.683l-2.016,0l0,7.366Zm0,-11.593l1.939,0c3.102,0 4.769,-1.279 4.769,-3.218c0,-1.977 -1.512,-3.024 -4.187,-3.024c-1.28,0 -2.017,0.077 -2.521,0.155l0,6.087Zm-5.854,-10.003c1.551,-0.31 4.691,-0.543 7.638,-0.543c3.606,0 5.816,0.349 7.716,1.474c1.822,0.969 3.14,2.752 3.14,5.117c0,2.327 -1.357,4.498 -4.304,5.584l0,0.077c2.986,0.814 5.196,3.063 5.196,6.437c0,2.365 -1.085,4.226 -2.714,5.544c-1.9,1.512 -5.079,2.365 -10.275,2.365c-2.908,0 -5.079,-0.194 -6.397,-0.387l0,-25.668Z" style="fill:#fff;fill-rule:nonzero;"/><rect x="63.103" y="156.532" width="2.597" height="38.773" style="fill:#fff;fill-rule:nonzero;"/><path d="M85.36,161.928l0,10.042l9.732,0l0,-10.042l5.894,0l0,26.133l-5.894,0l0,-10.934l-9.732,0l0,10.934l-5.932,0l0,-26.133l5.932,0Z" style="fill:#fff;fill-rule:nonzero;"/><path d="M110.838,178.561c0,3.258 1.357,5.7 3.877,5.7c2.288,0 3.761,-2.288 3.761,-5.7c0,-2.83 -1.085,-5.699 -3.761,-5.699c-2.83,0 -3.877,2.908 -3.877,5.699Zm13.725,-0.194c0,6.941 -4.924,10.12 -10.003,10.12c-5.544,0 -9.81,-3.645 -9.81,-9.771c0,-6.126 4.033,-10.042 10.12,-10.042c5.816,0 9.693,3.994 9.693,9.693Z" style="fill:#fff;fill-rule:nonzero;"/><rect x="128.211" y="160.532" width="5.893" height="27.529" style="fill:#fff;fill-rule:nonzero;"/><path d="M151.359,177.127c0,-0.31 -0.038,-0.737 -0.077,-1.047c-0.348,-1.59 -1.629,-2.908 -3.451,-2.908c-2.675,0 -4.071,2.404 -4.071,5.389c0,3.218 1.59,5.235 4.033,5.235c1.706,0 3.062,-1.164 3.411,-2.831c0.117,-0.426 0.155,-0.853 0.155,-1.357l0,-2.481Zm5.894,-16.595l0,21.868c0,2.132 0.078,4.381 0.155,5.661l-5.234,0l-0.272,-2.792l-0.077,0c-1.202,2.133 -3.49,3.218 -5.932,3.218c-4.497,0 -8.104,-3.838 -8.104,-9.731c-0.038,-6.398 3.955,-10.082 8.491,-10.082c2.326,0 4.149,0.814 5.002,2.133l0.077,0l0,-10.275l5.894,0Z" style="fill:#fff;fill-rule:nonzero;"/><path d="M161.986,188.061l0,-18.96l5.894,0l0,18.96l-5.894,0Zm6.087,-24.233c0,1.628 -1.24,2.947 -3.178,2.947c-1.862,0 -3.103,-1.319 -3.064,-2.947c-0.039,-1.706 1.202,-2.986 3.102,-2.986c1.9,0 3.102,1.28 3.14,2.986Z" style="fill:#fff;fill-rule:nonzero;"/><path d="M172.61,175.15c0,-2.366 -0.078,-4.382 -0.155,-6.049l5.118,0l0.272,2.598l0.116,0c0.775,-1.202 2.714,-3.025 5.854,-3.025c3.877,0 6.786,2.56 6.786,8.143l0,11.244l-5.894,0l0,-10.508c0,-2.442 -0.853,-4.109 -2.985,-4.109c-1.628,0 -2.598,1.124 -2.986,2.209c-0.155,0.35 -0.232,0.931 -0.232,1.474l0,10.934l-5.894,0l0,-12.911Z" style="fill:#fff;fill-rule:nonzero;"/><path d="M207.393,176.817c0,-0.388 -0.039,-0.776 -0.118,-1.086c-0.425,-1.551 -1.55,-2.598 -3.178,-2.598c-2.133,0 -3.878,1.939 -3.878,5.39c0,2.83 1.396,5.04 3.878,5.04c1.511,0 2.714,-1.008 3.101,-2.404c0.156,-0.426 0.195,-1.047 0.195,-1.551l0,-2.791Zm6.047,-7.716c-0.077,1.202 -0.155,2.792 -0.155,5.622l0,10.585c0,3.644 -0.736,6.63 -2.869,8.531c-2.094,1.782 -4.924,2.325 -7.716,2.325c-2.481,0 -5.117,-0.504 -6.823,-1.473l1.163,-4.459c1.202,0.698 3.296,1.435 5.506,1.435c2.791,0 4.924,-1.513 4.924,-5.002l0,-1.241l-0.077,0c-1.125,1.59 -2.948,2.481 -5.119,2.481c-4.691,0 -8.026,-3.799 -8.026,-9.266c0,-6.088 3.955,-9.965 8.607,-9.965c2.598,0 4.227,1.125 5.197,2.676l0.077,0l0.193,-2.249l5.118,0Z" style="fill:#fff;fill-rule:nonzero;"/><path d="M6.936,219.376c0.426,0.075 1.052,0.101 1.83,0.101c2.256,0 4.337,-0.828 4.337,-3.284c0,-2.307 -1.981,-3.26 -4.362,-3.26l-1.805,0l0,6.443Zm0,-8.098l1.98,0c2.307,0 3.66,-1.203 3.66,-2.833c0,-1.98 -1.504,-2.757 -3.71,-2.757c-1.003,0 -1.579,0.075 -1.93,0.151l0,5.439Zm-2.182,-6.919c0.953,-0.2 2.457,-0.351 3.987,-0.351c2.181,0 3.585,0.376 4.637,1.228c0.878,0.652 1.405,1.655 1.405,2.984c0,1.63 -1.078,3.058 -2.859,3.71l0,0.051c1.605,0.4 3.485,1.73 3.485,4.236c0,1.455 -0.576,2.558 -1.428,3.385c-1.179,1.078 -3.084,1.579 -5.842,1.579c-1.504,0 -2.658,-0.1 -3.385,-0.2l0,-16.622Z" style="fill:#fff;fill-rule:nonzero;"/><path d="M28.418,217.722c0,1.253 0.025,2.356 0.101,3.309l-1.956,0l-0.125,-1.981l-0.051,0c-0.576,0.978 -1.855,2.257 -4.011,2.257c-1.905,0 -4.187,-1.053 -4.187,-5.315l0,-7.095l2.207,0l0,6.719c0,2.306 0.702,3.861 2.707,3.861c1.48,0 2.507,-1.028 2.908,-2.006c0.126,-0.326 0.201,-0.727 0.201,-1.128l0,-7.446l2.206,0l0,8.825Z" style="fill:#fff;fill-rule:nonzero;"/><path d="M31.775,218.775c0.652,0.426 1.806,0.877 2.909,0.877c1.604,0 2.356,-0.802 2.356,-1.805c0,-1.053 -0.626,-1.63 -2.256,-2.231c-2.181,-0.777 -3.209,-1.981 -3.209,-3.435c0,-1.955 1.579,-3.56 4.187,-3.56c1.228,0 2.306,0.351 2.983,0.752l-0.552,1.605c-0.476,-0.301 -1.354,-0.702 -2.482,-0.702c-1.303,0 -2.03,0.752 -2.03,1.654c0,1.003 0.727,1.454 2.306,2.056c2.106,0.802 3.184,1.855 3.184,3.661c0,2.13 -1.654,3.634 -4.538,3.634c-1.328,0 -2.557,-0.325 -3.409,-0.827l0.551,-1.679Z" style="fill:#fff;fill-rule:nonzero;"/><path d="M42.002,221.031l0,-12.134l2.207,0l0,12.134l-2.207,0Zm2.458,-15.544c0.024,0.752 -0.527,1.354 -1.404,1.354c-0.778,0 -1.329,-0.602 -1.329,-1.354c0,-0.777 0.576,-1.378 1.379,-1.378c0.827,0 1.354,0.601 1.354,1.378Z" style="fill:#fff;fill-rule:nonzero;"/><path d="M47.868,212.181c0,-1.254 -0.025,-2.281 -0.1,-3.284l1.955,0l0.125,2.005l0.05,0c0.602,-1.153 2.006,-2.281 4.012,-2.281c1.679,0 4.287,1.003 4.287,5.165l0,7.245l-2.207,0l0,-6.995c0,-1.955 -0.727,-3.585 -2.807,-3.585c-1.454,0 -2.582,1.028 -2.959,2.257c-0.1,0.276 -0.15,0.652 -0.15,1.028l0,7.295l-2.206,0l0,-8.85Z" style="fill:#fff;fill-rule:nonzero;"/><path d="M69.476,213.786c0.025,-1.405 -0.577,-3.585 -3.059,-3.585c-2.232,0 -3.209,2.055 -3.385,3.585l6.444,0Zm-6.469,1.579c0.051,2.983 1.956,4.212 4.162,4.212c1.58,0 2.532,-0.276 3.359,-0.627l0.376,1.579c-0.777,0.352 -2.106,0.752 -4.036,0.752c-3.735,0 -5.967,-2.456 -5.967,-6.116c0,-3.661 2.157,-6.544 5.691,-6.544c3.961,0 5.014,3.485 5.014,5.716c0,0.451 -0.05,0.802 -0.075,1.028l-8.524,0Z" style="fill:#fff;fill-rule:nonzero;"/><path d="M74.036,218.775c0.652,0.426 1.805,0.877 2.908,0.877c1.605,0 2.357,-0.802 2.357,-1.805c0,-1.053 -0.627,-1.63 -2.257,-2.231c-2.181,-0.777 -3.209,-1.981 -3.209,-3.435c0,-1.955 1.58,-3.56 4.187,-3.56c1.229,0 2.307,0.351 2.984,0.752l-0.552,1.605c-0.476,-0.301 -1.354,-0.702 -2.482,-0.702c-1.304,0 -2.031,0.752 -2.031,1.654c0,1.003 0.727,1.454 2.307,2.056c2.106,0.802 3.184,1.855 3.184,3.661c0,2.13 -1.655,3.634 -4.538,3.634c-1.329,0 -2.557,-0.325 -3.41,-0.827l0.552,-1.679Z" style="fill:#fff;fill-rule:nonzero;"/><path d="M83.962,218.775c0.652,0.426 1.806,0.877 2.909,0.877c1.604,0 2.356,-0.802 2.356,-1.805c0,-1.053 -0.626,-1.63 -2.256,-2.231c-2.181,-0.777 -3.209,-1.981 -3.209,-3.435c0,-1.955 1.579,-3.56 4.187,-3.56c1.228,0 2.306,0.351 2.983,0.752l-0.552,1.605c-0.476,-0.301 -1.354,-0.702 -2.482,-0.702c-1.303,0 -2.03,0.752 -2.03,1.654c0,1.003 0.727,1.454 2.306,2.056c2.106,0.802 3.184,1.855 3.184,3.661c0,2.13 -1.654,3.634 -4.538,3.634c-1.328,0 -2.557,-0.325 -3.409,-0.827l0.551,-1.679Z" style="fill:#fff;fill-rule:nonzero;"/><rect x="99.578" y="204.133" width="2.182" height="16.898" style="fill:#fff;fill-rule:nonzero;"/><path d="M105.745,212.181c0,-1.254 -0.025,-2.281 -0.1,-3.284l1.955,0l0.125,2.005l0.05,0c0.602,-1.153 2.006,-2.281 4.012,-2.281c1.679,0 4.287,1.003 4.287,5.165l0,7.245l-2.207,0l0,-6.995c0,-1.955 -0.726,-3.585 -2.807,-3.585c-1.455,0 -2.582,1.028 -2.959,2.257c-0.1,0.276 -0.15,0.652 -0.15,1.028l0,7.295l-2.206,0l0,-8.85Z" style="fill:#fff;fill-rule:nonzero;"/><path d="M122.213,205.412l0,3.485l3.159,0l0,1.68l-3.159,0l0,6.543c0,1.504 0.426,2.357 1.655,2.357c0.576,0 1.003,-0.075 1.278,-0.151l0.101,1.655c-0.427,0.175 -1.103,0.3 -1.956,0.3c-1.028,0 -1.855,-0.325 -2.381,-0.927c-0.627,-0.652 -0.853,-1.73 -0.853,-3.159l0,-6.618l-1.88,0l0,-1.68l1.88,0l0,-2.908l2.156,-0.577Z" style="fill:#fff;fill-rule:nonzero;"/><path d="M135.398,213.786c0.026,-1.405 -0.576,-3.585 -3.058,-3.585c-2.232,0 -3.209,2.055 -3.385,3.585l6.443,0Zm-6.467,1.579c0.05,2.983 1.955,4.212 4.162,4.212c1.579,0 2.531,-0.276 3.359,-0.627l0.376,1.579c-0.777,0.352 -2.106,0.752 -4.037,0.752c-3.735,0 -5.966,-2.456 -5.966,-6.116c0,-3.661 2.156,-6.544 5.691,-6.544c3.961,0 5.013,3.485 5.013,5.716c0,0.451 -0.05,0.802 -0.075,1.028l-8.523,0Z" style="fill:#fff;fill-rule:nonzero;"/><rect x="140.26" y="203.231" width="2.206" height="17.8" style="fill:#fff;fill-rule:nonzero;"/><path d="M146.176,221.031l0,-12.134l2.206,0l0,12.134l-2.206,0Zm2.457,-15.544c0.025,0.752 -0.527,1.354 -1.404,1.354c-0.778,0 -1.329,-0.602 -1.329,-1.354c0,-0.777 0.577,-1.378 1.379,-1.378c0.827,0 1.354,0.601 1.354,1.378Z" style="fill:#fff;fill-rule:nonzero;"/><path d="M160.214,213.685c0,-0.376 -0.026,-0.701 -0.125,-1.002c-0.401,-1.279 -1.48,-2.332 -3.084,-2.332c-2.106,0 -3.61,1.78 -3.61,4.588c0,2.381 1.204,4.362 3.584,4.362c1.355,0 2.584,-0.852 3.059,-2.256c0.126,-0.376 0.176,-0.803 0.176,-1.179l0,-2.181Zm2.281,-4.788c-0.05,0.878 -0.099,1.855 -0.099,3.334l0,7.045c0,2.783 -0.552,4.487 -1.731,5.541c-1.178,1.103 -2.883,1.454 -4.412,1.454c-1.454,0 -3.059,-0.351 -4.036,-1.003l0.552,-1.68c0.801,0.502 2.055,0.953 3.559,0.953c2.256,0 3.911,-1.179 3.911,-4.237l0,-1.354l-0.051,0c-0.676,1.128 -1.98,2.031 -3.86,2.031c-3.009,0 -5.164,-2.558 -5.164,-5.917c0,-4.111 2.682,-6.443 5.465,-6.443c2.105,0 3.259,1.103 3.785,2.106l0.051,0l0.099,-1.83l1.931,0Z" style="fill:#fff;fill-rule:nonzero;"/><path d="M173.749,213.786c0.025,-1.405 -0.576,-3.585 -3.059,-3.585c-2.23,0 -3.209,2.055 -3.383,3.585l6.442,0Zm-6.468,1.579c0.05,2.983 1.955,4.212 4.161,4.212c1.58,0 2.533,-0.276 3.361,-0.627l0.376,1.579c-0.778,0.352 -2.107,0.752 -4.037,0.752c-3.736,0 -5.966,-2.456 -5.966,-6.116c0,-3.661 2.155,-6.544 5.69,-6.544c3.961,0 5.014,3.485 5.014,5.716c0,0.451 -0.05,0.802 -0.075,1.028l-8.524,0Z" style="fill:#fff;fill-rule:nonzero;"/><path d="M178.61,212.181c0,-1.254 -0.025,-2.281 -0.1,-3.284l1.956,0l0.125,2.005l0.05,0c0.602,-1.153 2.005,-2.281 4.011,-2.281c1.68,0 4.287,1.003 4.287,5.165l0,7.245l-2.206,0l0,-6.995c0,-1.955 -0.727,-3.585 -2.808,-3.585c-1.453,0 -2.582,1.028 -2.958,2.257c-0.1,0.276 -0.151,0.652 -0.151,1.028l0,7.295l-2.206,0l0,-8.85Z" style="fill:#fff;fill-rule:nonzero;"/><path d="M201.172,220.58c-0.577,0.301 -1.856,0.701 -3.485,0.701c-3.661,0 -6.041,-2.482 -6.041,-6.191c0,-3.736 2.556,-6.444 6.517,-6.444c1.304,0 2.457,0.326 3.059,0.627l-0.501,1.705c-0.527,-0.301 -1.355,-0.577 -2.558,-0.577c-2.782,0 -4.287,2.056 -4.287,4.588c0,2.808 1.806,4.538 4.212,4.538c1.254,0 2.081,-0.326 2.708,-0.602l0.376,1.655Z" style="fill:#fff;fill-rule:nonzero;"/><path d="M211.298,213.786c0.025,-1.405 -0.576,-3.585 -3.059,-3.585c-2.23,0 -3.209,2.055 -3.384,3.585l6.443,0Zm-6.468,1.579c0.05,2.983 1.955,4.212 4.161,4.212c1.58,0 2.532,-0.276 3.361,-0.627l0.376,1.579c-0.778,0.352 -2.107,0.752 -4.038,0.752c-3.735,0 -5.965,-2.456 -5.965,-6.116c0,-3.661 2.155,-6.544 5.69,-6.544c3.961,0 5.014,3.485 5.014,5.716c0,0.451 -0.05,0.802 -0.075,1.028l-8.524,0Z" style="fill:#fff;fill-rule:nonzero;"/></svg>