<?xml version="1.0" encoding="UTF-8" standalone="no"?>
<!DOCTYPE svg PUBLIC "-//W3C//DTD SVG 1.1//EN" "http://www.w3.org/Graphics/SVG/1.1/DTD/svg11.dtd">
<svg width="100%" height="100%" viewBox="0 0 1882 793" version="1.1" xmlns="http://www.w3.org/2000/svg" xmlns:xlink="http://www.w3.org/1999/xlink" xml:space="preserve" xmlns:serif="http://www.serif.com/" style="fill-rule:evenodd;clip-rule:evenodd;stroke-linejoin:round;stroke-miterlimit:1.41421;">
    <g transform="matrix(1,0,0,1,-267.463,-261.068)">
        <g id="Logo" transform="matrix(4.16667,0,0,4.16667,0,0)">
            <text x="73.435px" y="250.029px" style="font-family:'Gotham-Book', 'Gotham';font-weight:325;font-size:18.5px;fill:white;">IMPOR<tspan x="136.206px 146.529px 160.385px 174.038px 187.895px 203.62px " y="250.029px 250.029px 250.029px 250.029px 250.029px 250.029px ">TAÇÃO </tspan>• EXPOR<tspan x="290.699px 301.022px 314.879px 328.532px 342.388px 358.113px " y="250.029px 250.029px 250.029px 250.029px 250.029px 250.029px ">TAÇÃO </tspan>• DIS<tspan x="409.469px 421.457px " y="250.029px 250.029px ">TR</tspan>IBUIÇÃ<tspan x="500.508px " y="250.029px ">O</tspan></text>
            <g transform="matrix(-0.540532,-0.841324,-0.841324,0.540532,124.274,128.542)">
                <path d="M-80.858,28.045L3.233,28.045C3.233,28.045 11.022,37.475 12.427,46.015L-69.048,46.428L-80.858,28.045Z" style="fill:white;fill-rule:nonzero;"/>
            </g>
            <g transform="matrix(1,0,0,1,75.716,174.618)">
                <path d="M0,7.99L18.771,37.111L40.588,37.111L-2.171,-29.121C-7.964,-23.539 -12.306,-11.034 0,7.99" style="fill:white;fill-rule:nonzero;"/>
            </g>
            <g transform="matrix(1,0,0,1,99.2663,102.539)">
                <path d="M0,5.207C6.505,5.207 72.345,5.343 72.345,5.343L59.496,-14.528L8.584,-14.528C-5.22,-14.528 -23.249,-12.087 -29.812,19.735C-20.811,7.735 -9.534,5.207 0,5.207" style="fill:white;fill-rule:nonzero;"/>
            </g>
            <g transform="matrix(1,0,0,1,154.747,73.4667)">
                <path d="M0,8.336L-12.313,-10.81L-38.429,-10.81C-48.718,-10.81 -70.963,-9.534 -75.883,19.146C-68.102,9.44 -55.298,8.209 -50.211,8.209C-45.125,8.209 0,8.336 0,8.336" style="fill:white;fill-rule:nonzero;"/>
            </g>
            <g transform="matrix(1,0,0,1,102.563,148.338)">
                <path d="M0,-34.25C-14.999,-34.25 -32.095,-30.408 -37.312,-6.563C-37.312,-6.563 -38.134,-3.276 -38.372,0C-30.785,-13.259 -21.199,-14.528 -8.557,-14.528C4.085,-14.528 85.912,-14.382 85.912,-14.382L73.063,-34.25L0,-34.25Z" style="fill:white;fill-rule:nonzero;"/>
            </g>
            <g transform="matrix(0.540537,0.84132,0.84132,-0.540537,197.005,51.6726)">
                <path d="M-15.316,-44.158L68.775,-44.158C68.775,-44.158 76.564,-34.728 77.97,-26.189L-3.505,-25.775L-15.316,-44.158Z" style="fill:white;fill-rule:nonzero;"/>
            </g>
            <g transform="matrix(1,0,0,1,220.245,99.7673)">
                <path d="M0,-7.991L-18.771,-37.111L-40.588,-37.111L2.171,29.12C7.965,23.538 12.307,11.034 0,-7.991" style="fill:white;fill-rule:nonzero;"/>
            </g>
            <g transform="matrix(1,0,0,1,196.694,171.847)">
                <path d="M0,-5.207C-6.505,-5.207 -72.345,-5.343 -72.345,-5.343L-59.495,14.528L-8.583,14.528C5.22,14.528 23.249,12.086 29.812,-19.735C20.811,-7.736 9.534,-5.207 0,-5.207" style="fill:white;fill-rule:nonzero;"/>
            </g>
            <g transform="matrix(1,0,0,1,141.214,200.92)">
                <path d="M0,-8.338L12.313,10.809L38.429,10.809C48.718,10.809 70.963,9.533 75.883,-19.147C68.102,-9.441 55.298,-8.211 50.211,-8.211C45.124,-8.211 0,-8.338 0,-8.338" style="fill:white;fill-rule:nonzero;"/>
            </g>
            <g transform="matrix(1,0,0,1,193.398,126.048)">
                <path d="M0,34.249C14.999,34.249 32.096,30.408 37.312,6.562C37.312,6.562 38.134,3.276 38.373,0C30.785,13.259 21.199,14.528 8.557,14.528C-4.085,14.528 -85.912,14.381 -85.912,14.381L-73.063,34.249L0,34.249Z" style="fill:white;fill-rule:nonzero;"/>
            </g>
            <g transform="matrix(1,0,0,1,285.066,128.447)">
                <path d="M0,39.057C12.727,39.057 21.175,32.036 21.175,19.638L21.175,19.418C21.175,7.131 12.727,-0.001 0,-0.001L-8.667,-0.001L-8.667,39.057L0,39.057ZM-29.951,-18.87L-0.329,-18.87C27.099,-18.87 43.007,-3.072 43.007,19.089L43.007,19.309C43.007,41.47 26.879,57.927 -0.768,57.927L-29.951,57.927L-29.951,-18.87Z" style="fill:white;fill-rule:nonzero;"/>
            </g>
            <g transform="matrix(1,0,0,1,329.496,186.703)">
                <path d="M0,-77.126L22.491,-77.126L35.876,-32.693L50.687,-77.346L69.008,-77.346L83.819,-32.693L97.204,-77.126L119.256,-77.126L93.583,0.22L75.042,0.22L59.573,-43.994L44.214,0.22L25.673,0.22L0,-77.126Z" style="fill:white;fill-rule:nonzero;"/>
            </g>
            <g transform="matrix(1,0,0,1,457.191,186.374)">
                <path d="M0,-76.797L21.284,-76.797L21.284,-18.651L58.477,-18.651L58.477,0L0,0L0,-76.797Z" style="fill:white;fill-rule:nonzero;"/>
            </g>
        </g>
    </g>
</svg>
