<?xml version="1.0" encoding="UTF-8" standalone="no"?>
<!DOCTYPE svg PUBLIC "-//W3C//DTD SVG 1.1//EN" "http://www.w3.org/Graphics/SVG/1.1/DTD/svg11.dtd">
<svg width="100%" height="100%" viewBox="0 0 188 246" version="1.1" xmlns="http://www.w3.org/2000/svg" xmlns:xlink="http://www.w3.org/1999/xlink" xml:space="preserve" xmlns:serif="http://www.serif.com/" style="fill-rule:evenodd;clip-rule:evenodd;stroke-linejoin:round;stroke-miterlimit:1.41421;">
    <path id="path6694" d="M96.469,8C85.154,7.909 73.347,11.718 64.438,18.969C42.491,36.83 39.124,76.818 84.094,101.438L83.875,101.563L78.281,118.344C41.642,115.221 5.788,132.631 6,171.688C5.717,215.353 52.958,237.755 84.313,237.5C147.478,238.271 180.828,205.007 180.656,161.781C181.698,128.43 160.965,83.728 180.219,49.938L146.688,49.5C145.654,60.985 140.098,70.428 126.469,76.188L123.75,77.813L125.156,75.75C131.454,68.568 133.503,53.267 132.906,43.063C132.77,19.143 115.326,8.152 96.469,8ZM91.344,37.813C108.09,37.789 101.232,63.534 94.188,74.469C69.863,64.201 79.16,37.678 89.625,37.906C90.215,37.851 90.804,37.813 91.344,37.813ZM138.938,98.125C137.122,120.782 149.253,142.146 146.688,166.094C144.036,193.999 119.37,208.747 86.031,206.969C21.729,202.229 32.057,145.657 67.531,147.156L54.625,183.313L86.031,182.875L97.625,151.031C106.353,155.477 111.618,159.93 117,164.375L127.75,136.406C121.21,132.134 115.13,126.935 107.531,124.781L115.281,104.156C122.691,104.533 130.387,103.451 138.938,98.125Z" style="fill:white;"/>
</svg>
