<?xml version="1.0" encoding="UTF-8" standalone="no"?>
<!DOCTYPE svg PUBLIC "-//W3C//DTD SVG 1.1//EN" "http://www.w3.org/Graphics/SVG/1.1/DTD/svg11.dtd">
<svg width="100%" height="100%" viewBox="0 0 1521 559" version="1.1" xmlns="http://www.w3.org/2000/svg" xmlns:xlink="http://www.w3.org/1999/xlink" xml:space="preserve" xmlns:serif="http://www.serif.com/" style="fill-rule:evenodd;clip-rule:evenodd;stroke-linejoin:round;stroke-miterlimit:1.41421;">
    <g transform="matrix(1,0,0,1,0,-70.4213)">
        <g transform="matrix(4.16667,0,0,4.16667,0,0)">
            <g transform="matrix(0.24,0,0,0.24,0,0)">
                <path d="M19.831,264.866C16.749,275.826 15.167,286.967 15.167,298.256C15.167,461.586 348.883,594.295 760.696,594.896C1172.51,594.896 1506.23,462.188 1506.23,298.256C1506.23,287.573 1504.81,277.023 1502.04,266.633C1514.34,287.821 1520.83,309.875 1520.83,332.529C1520.83,496.575 1180.38,629.167 760.137,629.167C340.458,629.167 0,496.575 0,332.529C0,309.245 6.859,286.594 19.831,264.866Z" style="fill:white;fill-rule:nonzero;"/>
            </g>
        </g>
        <g transform="matrix(4.16667,0,0,4.16667,0,0)">
            <g transform="matrix(0.24,0,0,0.24,0,0)">
                <path d="M1197.24,70.421C1369.93,121.734 1481.5,202.959 1481.5,294.325C1481.5,414.026 1289.99,515.986 1020.44,556.26C1264.99,513.085 1437.13,410.376 1437.13,290.392C1437.13,202.102 1343.92,123.166 1197.24,70.421ZM312.324,76.056C174.437,128.703 87.642,205.192 87.642,290.392C87.642,407.412 251.379,508.001 486.344,552.953C227.876,510.607 46.629,410.876 46.629,294.325C46.629,206.235 150.165,127.572 312.324,76.056Z" style="fill:white;fill-rule:nonzero;"/>
            </g>
        </g>
        <g transform="matrix(4.16667,0,0,4.16667,0,0)">
            <path d="M80.227,45.559L80.227,43.941L138.072,43.941L138.072,45.559L133.218,45.559C127.689,45.559 123.644,46.233 121.217,47.581C119.599,48.39 118.79,50.548 118.79,53.919L118.79,81.425C118.79,85.605 117.711,89.111 115.419,91.672C113.127,94.369 109.352,96.661 103.823,98.549C98.43,100.437 91.823,101.515 84.002,101.515C77.665,101.515 72.811,100.841 69.17,99.628C65.53,98.414 63.777,96.931 63.777,95.178C63.777,93.83 64.586,92.751 66.204,92.077C68.361,91.268 70.923,90.729 73.889,90.729C76.047,90.729 77.935,90.998 79.687,91.538C81.44,92.077 83.463,93.695 86.16,96.122C87.643,97.605 89.665,98.279 92.092,98.279C93.845,98.279 95.598,97.875 97.081,96.931C98.699,95.987 99.373,94.369 99.373,92.077L99.373,53.919C99.373,51.087 98.969,49.199 98.16,48.39C97.486,47.716 96.137,47.177 93.98,46.637C91.148,45.963 88.182,45.694 84.946,45.694L80.227,45.694L80.227,45.559Z" style="fill:white;fill-rule:nonzero;"/>
        </g>
        <g transform="matrix(4.16667,0,0,4.16667,0,0)">
            <path d="M173.533,72.796L173.533,93.021C173.533,94.504 174.073,95.718 175.286,96.392C176.365,97.201 178.118,97.47 180.41,97.47C183.781,97.47 186.882,96.931 189.714,95.987C192.545,95.043 194.703,93.56 196.186,91.672C197.669,89.785 198.478,87.762 198.478,85.47C198.478,82.773 197.534,80.481 195.781,78.324C193.894,76.301 191.467,74.818 188.23,73.874C184.725,73.2 180.006,72.796 173.533,72.796ZM173.533,69.694C179.466,69.694 183.916,69.29 186.747,68.346C189.579,67.402 191.736,66.189 193.219,64.571C194.703,62.952 195.512,60.93 195.512,58.368C195.512,55.806 194.837,53.784 193.219,52.166C191.736,50.548 189.579,49.334 186.747,48.525C183.916,47.716 179.466,47.312 173.399,47.312L173.399,69.694L173.533,69.694ZM196.455,70.773C204.411,71.986 210.074,73.605 213.31,75.357C217.894,77.919 220.321,81.155 220.321,85.2C220.321,89.515 217.759,93.021 212.636,95.718C206.298,99.088 197.13,100.706 185.129,100.706L141.982,100.706L141.982,99.223C146.027,99.223 148.724,98.954 150.072,98.414C151.555,97.875 152.499,97.336 153.038,96.527C153.578,95.718 153.847,93.83 153.847,90.729L153.847,54.188C153.847,51.087 153.578,49.199 153.038,48.39C152.499,47.581 151.42,46.907 150.072,46.503C148.589,45.963 145.892,45.828 141.982,45.828L141.982,44.345L182.702,44.345C192.41,44.345 199.287,44.885 203.332,46.098C207.377,47.312 210.613,48.93 212.905,51.222C215.198,53.514 216.411,55.941 216.411,58.503C216.411,61.2 214.928,63.627 211.962,65.784C209.13,67.807 203.871,69.425 196.455,70.773Z" style="fill:white;fill-rule:nonzero;"/>
        </g>
        <g transform="matrix(4.16667,0,0,4.16667,0,0)">
            <path d="M269.132,99.493C278.705,97.201 283.694,92.482 283.694,86.684C283.694,78.593 274.795,73.874 261.177,70.503C247.828,66.998 238.929,63.222 239.064,56.75C238.929,49.064 249.85,43.806 268.593,43.806C281.402,43.806 287.2,45.424 287.874,46.637C288.548,48.39 289.088,52.3 289.088,54.862C289.088,55.537 285.986,55.537 285.717,54.862C283.29,49.064 279.245,45.694 267.918,45.694C256.457,45.694 248.637,49.334 248.637,55.402C248.637,61.334 255.514,64.705 267.649,67.807C282.481,71.582 293.537,76.436 293.537,85.2C293.537,93.965 282.75,98.819 271.02,99.897C270.076,100.032 268.593,99.628 269.132,99.493ZM247.019,100.302C234.479,100.302 226.794,98.549 226.254,96.931C225.715,95.313 224.771,91.538 224.771,88.436C224.771,87.762 228.007,87.762 228.142,88.436C230.299,94.504 236.232,98.145 247.828,98.145C261.042,98.145 269.536,94.639 269.536,87.762C269.536,81.29 262.39,77.245 248.772,73.874C233.535,69.829 224.771,64.436 224.771,57.829C224.771,49.873 235.423,45.019 244.322,43.941C245.131,43.806 246.884,44.21 245.94,44.48C237.58,46.098 230.704,50.682 230.704,57.155C230.704,63.762 237.85,68.75 251.738,72.526C266.435,76.301 275.334,80.346 275.334,87.493C275.334,95.043 264.817,100.032 247.423,100.032L247.019,100.032L247.019,100.302Z" style="fill:white;fill-rule:nonzero;"/>
        </g>
        <g transform="matrix(4.16667,0,0,4.16667,0,0)">
            <path d="M354.348,38.143L354.348,38.297C356.056,38.297 357.601,38.989 358.72,40.108C359.839,41.227 360.531,42.772 360.531,44.48C360.531,46.188 359.839,47.733 358.72,48.852C357.601,49.971 356.056,50.663 354.348,50.663C352.64,50.663 351.095,49.971 349.976,48.852C348.857,47.733 348.165,46.188 348.165,44.48C348.165,42.772 348.857,41.227 349.976,40.108C351.095,38.989 352.64,38.297 354.348,38.297L354.348,38.143L354.348,37.988C350.763,37.988 347.856,40.895 347.856,44.48C347.856,48.065 350.763,50.972 354.348,50.972C357.933,50.972 360.84,48.065 360.84,44.48C360.84,40.895 357.933,37.988 354.348,37.988L354.348,38.143Z" style="fill:white;fill-rule:nonzero;"/>
        </g>
        <g transform="matrix(4.16667,0,0,4.16667,0,0)">
            <path d="M353.539,42.323L353.539,44.48L353.809,44.48C354.213,44.48 354.483,44.48 354.618,44.345C354.753,44.345 354.887,44.21 355.022,44.076C355.157,43.941 355.157,43.671 355.157,43.401C355.157,42.997 355.022,42.727 354.887,42.592C354.752,42.457 354.348,42.323 353.943,42.323L353.539,42.323ZM353.539,44.75L353.539,46.637C353.539,46.637 353.674,46.772 353.809,46.772C353.944,46.772 354.078,46.772 354.348,46.772L354.348,46.907L351.516,46.907L351.516,46.772C351.786,46.772 351.921,46.772 352.056,46.772C352.191,46.772 352.191,46.637 352.191,46.637C352.191,46.503 352.191,46.368 352.191,46.098L352.191,42.862C352.191,42.592 352.191,42.457 352.191,42.323L352.056,42.188C351.921,42.188 351.786,42.188 351.516,42.188L351.516,42.053L354.078,42.053C354.752,42.053 355.292,42.053 355.561,42.188C355.831,42.323 356.101,42.457 356.371,42.592C356.505,42.862 356.64,42.997 356.64,43.401C356.64,43.806 356.505,44.076 356.236,44.345C356.101,44.48 355.831,44.615 355.427,44.615L356.775,46.233C356.91,46.503 357.045,46.637 357.18,46.637C357.314,46.772 357.449,46.772 357.584,46.772L357.584,46.907L355.831,46.907L354.078,44.75L353.539,44.75Z" style="fill:white;fill-rule:nonzero;"/>
        </g>
    </g>
</svg>
