<?xml version="1.0" encoding="UTF-8" standalone="no"?>
<!DOCTYPE svg PUBLIC "-//W3C//DTD SVG 1.1//EN" "http://www.w3.org/Graphics/SVG/1.1/DTD/svg11.dtd">
<svg width="100%" height="100%" viewBox="0 0 218 37" version="1.1" xmlns="http://www.w3.org/2000/svg" xmlns:xlink="http://www.w3.org/1999/xlink" xml:space="preserve" xmlns:serif="http://www.serif.com/" style="fill-rule:evenodd;clip-rule:evenodd;stroke-linejoin:round;stroke-miterlimit:1.41421;">
    <g id="layer1" transform="matrix(1,0,0,1,-273.634,-172.869)">
        <g id="path32" transform="matrix(1.35706,0,0,-1.35706,370.246,190.09)">
            <path d="M0,0C-0.003,1.498 -0.003,2.996 0,4.494C-1.288,4.503 -2.573,4.501 -3.861,4.498C-3.864,6.131 -3.867,7.766 -3.854,9.396C-5.557,9.387 -7.262,9.39 -8.964,9.393L-8.964,4.501L-11.082,4.501C-11.086,3.002 -11.082,1.502 -11.082,0L-8.967,0L-8.967,-0.003L-8.964,-0.003C-8.958,-1.371 -8.966,-2.741 -8.966,-4.11L-8.967,-4.11C-8.968,-4.223 -8.967,-4.337 -8.967,-4.45C-8.967,-4.536 -8.968,-4.622 -8.968,-4.708L-8.967,-4.708C-8.967,-5.506 -8.965,-6.303 -8.954,-7.101C-8.911,-9.258 -8.126,-11.568 -6.31,-12.835C-4.712,-13.978 -2.721,-14.192 -0.81,-14.166C-2.382,-12.529 -3.325,-10.136 -3.704,-8.214L-3.715,-8.158L-3.722,-8.102C-3.774,-7.68 -3.838,-7.002 -3.83,-6.287C-3.842,-6.134 -3.851,-5.982 -3.858,-5.833C-3.863,-5.444 -3.863,-5.055 -3.865,-4.667C-3.872,-3.111 -3.856,-1.557 -3.861,-0.003C-2.576,-0.006 -1.288,-0.006 0,0" style="fill:white;fill-rule:nonzero;"/>
        </g>
        <g id="path36" transform="matrix(1.35706,0,0,-1.35706,353.911,179.246)">
            <path d="M0,0C-0.01,1.502 -0.01,3.002 0,4.504C-2.521,4.927 -5.424,4.76 -7.444,3.018C-9.251,1.394 -9.606,-1.189 -9.542,-3.494C-9.558,-3.494 -9.576,-3.494 -9.593,-3.494L-11.75,-3.494C-11.747,-4.994 -11.747,-6.494 -11.75,-7.995L-9.885,-7.995C-9.766,-7.994 -9.648,-7.994 -9.53,-7.994L-9.53,-7.995L-9.519,-7.995L-9.519,-10.455L-9.527,-10.455C-9.523,-14.138 -9.522,-17.822 -9.53,-21.504L-7.157,-21.504C-6.219,-21.504 -5.281,-21.505 -4.343,-21.502C-4.346,-17.764 -4.348,-14.027 -4.342,-10.291L-4.342,-7.99L-0.883,-7.99C-0.886,-6.489 -0.886,-4.99 -0.883,-3.49C-0.883,-3.49 -4.277,-3.49 -4.368,-3.49C-4.322,-2.478 -4.438,-1.266 -3.605,-0.516C-2.601,0.327 -1.202,0.053 0,0" style="fill:white;fill-rule:nonzero;"/>
        </g>
        <g id="path40" transform="matrix(1.35706,0,0,-1.35706,328.396,208.428)">
            <path d="M0,0L2.304,0C2.74,0 3.176,0.001 3.613,0L5.069,0C5.038,3.858 5.099,7.715 5.038,11.574C4.998,13.838 4.138,16.349 1.98,17.411C-1.106,18.946 -4.723,18.6 -8.016,18.072C-8.028,16.435 -8.019,14.795 -8.022,13.154C-5.903,13.614 -3.593,14.094 -1.495,13.309C-0.519,12.973 -0.154,11.944 -0.003,11.014C-1.47,11.199 -2.959,11.549 -4.439,11.249C-6.194,11.033 -7.932,10.174 -8.924,8.67C-10.524,6.276 -10.067,2.656 -7.698,0.926C-5.474,-0.77 -2.242,-0.587 0.018,0.947C0.015,0.711 0.006,0.24 0,0M-0.214,3.898C-1.526,3.493 -3.129,3.045 -4.334,3.962C-5.434,4.738 -5.291,6.606 -4.099,7.218C-2.882,7.86 -1.462,7.635 -0.17,7.378C-0.053,6.22 -0.062,5.053 -0.214,3.898" style="fill:white;fill-rule:nonzero;"/>
        </g>
        <g id="path44" transform="matrix(1.35706,0,0,-1.35706,292.418,175.281)">
            <path d="M0,0C2.066,-0.012 4.133,-0.003 6.199,-0.003C3.172,-4.074 0.213,-8.198 -2.833,-12.254C-0.121,-16.306 2.548,-20.383 5.282,-24.42C3.138,-24.436 0.994,-24.414 -1.146,-24.433C-3.534,-20.81 -5.927,-17.19 -8.303,-13.56C-8.309,-17.183 -8.309,-20.806 -8.3,-24.43C-10.147,-24.42 -11.994,-24.426 -13.842,-24.426C-13.835,-16.287 -13.835,-8.148 -13.842,-0.009C-11.994,0 -10.15,-0.009 -8.303,0C-8.306,-3.842 -8.312,-7.685 -8.3,-11.527C-5.545,-7.676 -2.762,-3.846 0,0" style="fill:white;fill-rule:nonzero;"/>
        </g>
        <g id="path48" transform="matrix(1.35706,0,0,-1.35706,301.33,184.062)">
            <path d="M0,0C1.739,0.009 3.481,0 5.223,0.009C5.217,-1.14 5.214,-2.289 5.195,-3.435C6.039,-1.532 7.864,-0.294 9.89,0.034C9.894,-1.671 9.915,-3.379 9.869,-5.084C7.648,-5.35 5.366,-7.006 5.285,-9.402C5.223,-12.25 5.273,-15.105 5.27,-17.956C3.512,-17.956 1.754,-17.956 0,-17.952C0.003,-11.966 0.003,-5.983 0,0" style="fill:white;fill-rule:nonzero;"/>
        </g>
        <g id="path52" transform="matrix(1.35706,0,0,-1.35706,427.164,203.476)">
            <path d="M0,0C-0.729,-0.291 -0.874,-0.437 -1.748,-0.728C-2.622,-1.02 -3.642,-1.02 -4.517,-0.728C-7.285,0.437 -5.536,4.662 -5.536,4.662C5.828,7.43 4.226,13.55 1.166,13.842C-0.729,13.842 -7.576,13.55 -10.782,5.682C-11.218,4.517 -14.278,-3.788 -7.43,-4.37C-5.974,-4.37 -4.37,-4.225 -2.914,-3.497C-1.602,-2.768 -0.582,-1.894 0.291,-0.728C1.02,0.583 0,0 0,0M-1.602,11.656C-0.729,11.365 -2.914,6.994 -2.914,6.994C-3.788,6.702 -4.662,6.41 -5.245,6.41C-4.954,6.994 -3.351,12.53 -1.602,11.656" style="fill:white;fill-rule:nonzero;"/>
        </g>
        <g id="path56" transform="matrix(1.35706,0,0,-1.35706,463.149,205.651)">
            <path d="M0,0C-0.146,0.146 -0.437,0.146 -0.582,0.291C-1.457,0.874 -0.729,2.477 -0.582,3.351L2.04,12.675C2.186,13.258 3.206,16.318 -0.874,15.735C-4.371,15.152 -6.848,12.967 -6.848,12.967C-6.556,13.841 -6.265,15.152 -6.848,15.444C-7.576,15.735 -11.802,14.424 -12.822,13.55C-13.113,13.55 -13.55,13.113 -13.113,12.675C-12.676,12.093 -12.53,11.656 -12.822,10.636C-13.404,8.887 -15.152,2.768 -15.59,1.602C-16.026,0.437 -16.61,-1.749 -15.59,-2.477C-14.861,-3.06 -11.802,-1.749 -11.364,-1.457C-10.927,-1.311 -10.49,-1.02 -10.345,-0.874C-9.762,-0.291 -10.636,0 -9.762,3.06C-9.762,3.206 -8.742,6.265 -8.014,8.887C-7.43,11.073 -5.391,12.093 -4.662,12.238C-3.497,12.384 -3.788,11.364 -3.934,10.636C-4.954,7.43 -6.119,2.622 -6.556,1.457C-6.994,0.291 -7.722,-2.04 -6.556,-2.477C-5.537,-3.206 -0.874,-1.166 -0.437,-0.874C0.437,-0.291 0.437,0 0,0" style="fill:white;fill-rule:nonzero;"/>
        </g>
        <g id="path60" transform="matrix(1.35706,0,0,-1.35706,439.027,205.651)">
            <path d="M0,0C-0.291,0.146 -0.437,0.146 -0.583,0.291C-1.457,0.874 -0.874,2.477 -0.583,3.351L2.186,12.675C2.331,13.695 2.914,15.006 2.186,15.444C1.311,15.735 -2.914,14.424 -3.934,13.55C-4.08,13.55 -4.517,13.113 -4.08,12.675C-3.642,12.093 -3.642,11.656 -3.934,10.636C-4.371,8.887 -6.411,2.622 -6.848,1.457C-7.285,0.291 -7.868,-2.04 -6.557,-2.477C-5.537,-3.206 -1.166,-1.311 -0.583,-0.874C0.437,-0.437 0.437,0 0,0" style="fill:white;fill-rule:nonzero;"/>
        </g>
        <g id="path64" transform="matrix(1.35706,0,0,-1.35706,437.841,181.727)">
            <path d="M0,0C0.291,-0.582 2.914,0.582 4.226,1.311C4.371,1.457 4.954,1.894 5.099,2.331C5.391,3.351 5.537,3.788 5.682,4.517C5.828,4.808 5.828,5.245 5.391,5.391C4.808,5.537 1.311,5.099 0.437,3.642C0.146,3.06 -0.874,0.291 0,0" style="fill:white;fill-rule:nonzero;"/>
        </g>
        <g id="path68" transform="matrix(1.35706,0,0,-1.35706,490.83,195.568)">
            <path d="M0,0C-0.437,1.602 -3.06,2.04 -4.079,1.166C-4.662,0.583 -4.954,-0.582 -4.808,-0.874C-2.331,-0.146 -1.894,-2.331 -2.331,-3.205C-3.206,-4.517 -3.497,-4.954 -4.662,-4.954L-12.384,-4.954C-12.53,-4.808 -12.676,-4.662 -12.384,-4.37C-11.947,-3.788 -4.371,6.556 -4.079,6.994C-3.934,7.285 -3.497,8.014 -4.517,8.014L-12.967,8.014C-13.841,8.014 -14.278,7.722 -15.006,6.994C-15.59,6.265 -16.318,4.08 -16.755,2.622C-16.755,2.622 -16.755,2.04 -15.881,2.768C-15.735,2.914 -15.444,3.497 -15.006,3.497L-9.907,3.497C-8.305,3.497 -16.755,-4.517 -19.378,-8.742C-19.814,-9.47 -19.086,-9.47 -18.649,-9.47L-7.576,-9.47C-4.808,-9.47 -5.245,-9.907 -3.788,-7.867C-3.788,-7.867 0.728,-2.04 0,0" style="fill:white;fill-rule:nonzero;"/>
        </g>
        <g id="path72" transform="matrix(1.35706,0,0,-1.35706,408.183,202.29)">
            <path d="M0,0L3.06,11.802C5.099,18.941 6.265,19.232 6.994,19.961L2.186,19.961C0.438,19.961 -0.874,17.484 -1.166,15.881L-3.206,8.45L-7.576,8.45C-7.576,8.45 -4.954,17.921 -4.662,18.941C-4.517,19.378 -4.517,19.961 -5.39,19.961C-5.537,19.961 -14.715,20.252 -17.63,19.232C-18.941,18.795 -20.834,17.63 -21.418,15.881C-21.854,14.861 -22.438,12.967 -21.126,9.47C-20.98,9.034 -20.689,8.742 -20.543,8.596C-20.106,8.305 -16.318,8.887 -16.464,8.887C-16.172,8.887 -16.026,9.034 -16.318,9.616C-16.61,10.345 -17.483,11.656 -17.63,12.967C-18.212,18.066 -14.57,18.795 -13.987,18.941C-13.113,19.086 -12.384,19.086 -11.51,18.941C-11.218,18.941 -10.49,18.795 -10.345,18.503C-10.053,17.921 -10.49,16.901 -10.782,15.735C-11.073,14.861 -13.55,5.828 -14.278,3.351C-14.715,1.457 -16.61,-2.622 -18.503,-3.206C-18.941,-3.351 -19.523,-3.351 -20.106,-3.206C-20.689,-3.06 -21.272,-2.768 -21.709,-2.477C-22.874,-1.311 -23.603,1.02 -23.749,2.768C-23.894,4.954 -23.457,6.556 -23.894,6.556C-24.654,6.556 -27.194,5.553 -28.223,4.814C-28.225,4.812 -28.226,4.812 -28.228,4.81C-28.646,4.512 -28.673,4.454 -28.673,4.454C-28.694,4.434 -28.71,4.413 -28.722,4.394C-28.99,3.935 -28.972,2.306 -28.848,1.311C-28.41,-0.874 -27.245,-3.351 -25.497,-4.517C-20.834,-7.722 -12.675,-1.894 -11.802,-1.311C-10.49,-0.146 -9.616,1.457 -9.325,2.622C-8.887,4.079 -8.159,6.556 -8.159,6.556L-3.788,6.556C-3.788,6.556 -5.537,0 -5.974,-1.602C-6.41,-2.914 -6.702,-5.099 -5.537,-4.954C-1.166,-4.954 0.583,-3.351 0.729,-3.206C0.874,-3.06 0.874,-2.768 0.729,-2.622C0.438,-2.477 -0.582,-1.457 0,0" style="fill:white;fill-rule:nonzero;"/>
        </g>
    </g>
</svg>
