<?xml version="1.0" encoding="UTF-8" standalone="no"?>
<!DOCTYPE svg PUBLIC "-//W3C//DTD SVG 1.1//EN" "http://www.w3.org/Graphics/SVG/1.1/DTD/svg11.dtd">
<svg width="100%" height="100%" viewBox="0 0 709 356" version="1.1" xmlns="http://www.w3.org/2000/svg" xmlns:xlink="http://www.w3.org/1999/xlink" xml:space="preserve" xmlns:serif="http://www.serif.com/" style="fill-rule:evenodd;clip-rule:evenodd;stroke-linejoin:round;stroke-miterlimit:1.41421;">
    <path d="M708.415,355.683L0,355.109L0.246,0L708.661,0.492L708.415,355.683L708.415,355.683ZM24.1,23.854L23.855,331.255L684.56,331.747L684.807,24.428L24.101,23.854L24.1,23.854Z" style="fill:white;fill-rule:nonzero;"/>
    <path d="M518.842,148.037L532.203,136.971L448.676,136.889L450.479,129.184L530.482,129.266L492.776,109.265L495.317,104.429L539.089,127.709L567.532,17.05L574.172,17.05L546.548,124.922L573.188,102.79L576.057,106.232L548.433,129.266L605.976,129.348L604.172,136.971L556.466,136.971L580.565,149.758L577.942,154.513L544.908,136.971L543.515,136.971L537.695,159.595L530.81,159.595L535.974,139.758L521.793,151.562L518.842,148.037" style="fill:white;fill-rule:nonzero;"/>
    <path d="M377.188,87.531C360.384,87.531 344.005,93.287 339.906,96.156C334.414,100.009 309.832,130.81 299.094,164.5C299.094,164.5 295.225,163.688 293.094,163.688C290.963,163.688 289.562,164.267 288.906,166.562C288.251,168.858 285.476,174.844 274,174.844C261.705,174.844 253.094,168.604 253.094,156.062C253.094,136.554 263.352,113.625 274.5,113.625C279.418,113.625 280.469,116.873 280.469,119.906C280.469,122.939 278.268,123.688 276.875,123.688C275.891,123.688 275.308,124.344 275.062,125C274.407,126.639 273.438,129.842 273.438,132.875C273.356,139.023 276.117,142.781 280.625,142.781C286.937,142.781 293.031,134.186 293.031,121.562C293.031,115.251 291.209,110.486 288.75,107.125C286.127,103.354 282.601,102.469 276.781,102.469C268.666,102.387 258.34,104.835 253.75,108.688C247.438,114.179 232.531,138.032 232.531,155C232.531,172.542 243.84,186.312 259.906,186.312C278.349,186.312 295.562,176.812 295.562,176.812C295.562,176.812 289.906,194.583 289.906,211.469C289.906,248.027 313.919,269.762 346.625,269.844C375.56,269.844 399.242,252.212 403.75,248.688C404.488,248.114 405.328,248.036 405.656,248.938C406.886,252.38 412.924,266.312 430.875,266.312C440.302,266.312 448.91,259.676 454.156,255.25C454.976,254.594 455.575,254.688 456.312,255.344C461.395,260.18 467.761,265.344 477.188,265.344C488.499,265.344 501.966,253.126 508.031,244.438C509.097,242.88 509.828,242.717 510.156,245.094C511.632,256.733 524.255,262.969 536.469,262.969C550.731,262.969 560.332,249.913 565.25,243.438C566.725,241.47 567.301,242.22 567.219,244.188C567.055,246.483 567.125,249.025 567.125,251.156C567.125,254.927 570.334,257.705 572.875,260C575.416,262.213 578.846,264.75 581.469,264.75C586.141,264.75 591.877,258.037 594.5,250.25C596.549,244.102 601.628,236.152 605.562,230.906C606.956,229.103 607.438,229.267 607.438,231.562C607.438,235.169 607.625,241.735 607.625,248.375C607.625,275.753 623.272,291.469 647.781,291.469C656.798,291.469 664.759,288.453 671.562,283.125C678.612,277.633 676.13,273.195 667.688,278.031C663.671,280.326 658.609,281.812 652.625,281.812C639.674,281.812 630.719,272.553 630.719,254.438C630.801,236.896 636.632,213.356 640.812,199.094C642.78,192.536 637.369,185.5 628.844,185.5C620.483,185.5 612.37,189.693 610.812,191.906C609.173,194.201 608.119,199.019 605.906,203.938C602.218,211.807 596.885,222.053 595,224.594C593.033,227.217 592.539,226.888 592.375,223.281C592.211,219.593 592.697,211.55 594.5,205.812C595.894,201.304 595.987,199.026 594.594,196.812C591.561,192.14 580.228,195.255 576.375,196.812C573.506,197.878 572.202,199.033 571.219,201.656C565.973,214.935 553.684,249.281 538.438,249.281C532.618,249.199 530.312,244.364 530.312,234.281C530.312,221.986 535.002,202.713 537.625,195.5C538.527,192.877 540.656,191.732 540.656,188.781C540.656,186.24 536.969,185.5 532.625,185.5C527.215,185.5 520.649,186.493 516.469,187.969C511.96,189.608 514.097,192.962 513.688,194.438C505.572,226.652 492.452,251.801 480.812,251.719C476.222,251.719 474.656,247.22 474.656,237.875C474.656,228.448 479.005,210.242 480.562,205.406C482.53,199.422 477.188,200.594 477.188,200.594C477.188,200.594 478.766,190.412 479.094,181.969C479.422,172.788 479.405,164.684 473.094,160.094C468.667,156.815 462.022,156.576 455.219,158.625C445.71,161.576 427.695,168.784 422.531,172.719C417.777,176.325 411.119,197.315 408.25,210.594C406.283,219.364 404.009,225.82 400.812,230C394.419,238.197 374.507,246 358.031,246C336.309,246 324,230.822 324,212.625C324.082,174.017 346.552,130.98 363.438,114.094C367.29,110.241 371.367,108.438 376.531,108.438C382.679,108.438 386.312,115.665 386.312,122.469C386.23,128.535 379.974,129.094 376.531,129.094C374.728,129.094 373.586,130.091 373.094,131.156C370.799,136.566 363.926,153.45 363.844,164.844C363.844,173.942 370.725,179.75 384.25,179.75C402.119,179.75 416.293,155.167 416.375,127.625C416.375,100.083 396.942,87.531 377.188,87.531ZM216.281,88.375C208.33,88.375 195.477,94.093 190.969,97.781C184.083,103.437 185.062,114.844 185.062,114.844C185.062,114.844 179.247,138.78 164.656,173.125C157.115,190.748 149.249,204.849 142.281,212.062C140.396,214.112 139.488,212.96 139.406,211.156C139.242,203.533 139.165,190.738 140.969,169.344C142.444,152.376 143.656,122.228 143,108.375C142.672,100.096 139.073,95.5 132.188,95.5C127.597,95.5 113.734,99.69 108.406,102.312C103.652,104.608 101.375,110.421 101.375,114.438C101.375,116.569 102.094,117.781 102.094,117.781C102.094,117.781 95.134,149.596 81.281,188.531C63.002,239.68 49.25,263.125 44.25,263.125C42.774,263.125 41.437,262.386 40.781,261.156C40.207,259.927 38,259.858 38,263.219C38,267.809 40.229,274.094 49,274.094C61.377,274.094 78.335,243.708 87.844,224.281C97.27,204.772 106.032,183.294 111.688,169.688C113.409,165.507 114.801,165.671 114.719,169.688C114.555,191.246 113.995,216.489 113.094,232.719C112.93,236.571 115.972,239.339 120.562,243.438C124.333,246.798 127.521,249.594 130.062,249.594C136.046,249.594 149.98,239.344 159.406,223.688C171.21,203.933 180.801,180.585 185.719,168.781C187.276,164.929 188.328,165.994 188,168.781C186.033,187.224 183.262,211.237 184,235.5C184.656,256.238 199.242,262.719 209.406,262.719C215.882,262.719 216.623,258.711 219,253.875C220.803,250.268 215.46,249.258 214.312,244.75C211.69,234.504 214.316,217.376 218.906,177.375C223.415,137.866 225.961,113.603 225.469,99.75C225.305,93.52 222.265,88.375 216.281,88.375ZM447.438,178.531C453.913,178.531 457.125,186.493 457.125,192.312C457.125,220.182 447.844,250.176 432.844,250.094C427.926,250.094 425.48,244.256 425.562,236.469C425.562,217.042 432.949,192.717 437.375,185.094C439.67,181.159 443.913,178.531 447.438,178.531Z" style="fill:white;fill-rule:nonzero;"/>
</svg>
