<?xml version="1.0" encoding="UTF-8" standalone="no"?>
<!DOCTYPE svg PUBLIC "-//W3C//DTD SVG 1.1//EN" "http://www.w3.org/Graphics/SVG/1.1/DTD/svg11.dtd">
<svg width="100%" height="100%" viewBox="0 0 300 330" version="1.1" xmlns="http://www.w3.org/2000/svg" xmlns:xlink="http://www.w3.org/1999/xlink" xml:space="preserve" xmlns:serif="http://www.serif.com/" style="fill-rule:evenodd;clip-rule:evenodd;stroke-linejoin:round;stroke-miterlimit:1.41421;">
    <g>
        <path d="M240.051,69.443C241.215,77.891 254.018,89.282 257.488,89.015C259.804,88.817 260.692,77.981 260.692,69.443C260.692,64.548 260.963,60.72 258.381,59.829C254.277,68.109 243.525,69.799 240.051,69.443M240.76,65.702C250.009,65.702 258.471,58.321 258.471,51.825C258.471,48.797 257.043,46.306 253.394,45.862C254.018,46.665 254.278,47.287 254.278,48.709C254.278,53.605 246.821,59.033 238.714,59.033C235.779,59.033 234.891,61.077 234.891,62.144C234.89,64.638 237.291,65.702 240.76,65.702M238.803,55.648C237.561,55.648 235.779,55.648 234.8,53.695C233.996,52.093 234.266,49.509 232.753,48.354C234.266,48.797 235.862,48.797 237.11,48.797C241.125,48.797 244.953,46.039 247.893,46.039C249.829,46.039 250.453,47.287 250.453,48.53C250.453,52.448 242.547,55.648 238.803,55.648" style="fill:white;fill-rule:nonzero;"/>
        <path d="M39.775,125.408C42.797,125.408 42.173,106.899 47.066,106.899C48.227,106.899 48.581,108.057 48.581,109.482C48.581,113.663 46.534,119.804 46.534,123.179C46.534,124.871 46.978,125.408 47.78,125.408C49.919,125.408 53.653,105.028 57.299,105.028C58.457,105.028 58.991,106.186 58.991,107.345C58.991,111.616 53.565,123.894 53.565,127.363C53.565,127.896 53.742,128.34 54.189,128.34C56.413,128.34 60.86,118.734 62.28,113.926C63.081,111.435 64.152,110.098 65.133,110.098C66.019,110.098 66.825,111.078 66.825,113.124C66.825,117.931 62.369,129.23 58.456,136.795C55.434,142.668 50.719,151.116 50.719,155.833C50.719,158.237 51.161,160.725 54.63,163.752C48.937,163.398 46.621,162.861 44.489,158.415C34.967,177.367 62.017,175.498 52.76,192.31C51.071,189.292 37.725,186.172 37.725,168.557C37.725,153.344 51.07,144.445 51.07,138.127C51.07,136.884 50.628,135.815 49.47,134.836C46.532,132.342 46.44,130.301 44.132,130.301C42.44,130.301 40.39,134.213 42.527,137.682C43.241,138.837 43.865,139.55 43.865,140.62C43.865,143.108 39.946,149.777 37.194,149.777C34.434,149.777 32.302,142.935 32.302,131.896C32.302,122.111 34.52,112.236 37.281,112.236C38.082,112.236 38.346,112.769 38.346,113.482C38.346,114.638 37.992,116.95 37.992,120.863C37.994,125.051 38.975,125.408 39.775,125.408" style="fill:white;fill-rule:nonzero;"/>
        <path d="M62.46,151.475C66.201,151.475 69.311,148.713 69.311,142.582L69.311,133.504C69.311,130.035 69.578,126.12 71.892,123.358C71.627,124.516 71.627,125.762 71.627,126.916C71.627,134.569 75.898,139.821 75.898,147.204C75.898,149.958 75.097,151.475 72.966,151.475C70.917,151.475 71.094,149.607 70.647,149.607C70.293,149.607 69.756,150.76 69.756,152.009C69.756,153.88 71.094,156.812 74.828,156.812C78.036,156.812 80.614,153.88 80.614,150.584C80.614,142.583 74.384,133.681 74.384,125.14C74.384,121.401 75.365,118.913 76.166,116.952C76.166,134.66 91.204,147.56 91.204,154.944C91.204,156.636 89.958,157.97 88.092,157.97C86.043,157.97 85.062,156.368 85.062,155.12C85.062,154.497 84.972,154.32 84.708,154.32C84.176,154.32 82.574,156.1 82.574,158.418C82.574,161.35 84.972,164.913 89.425,164.913C94.494,164.913 97.249,160.638 97.249,156.812C97.249,147.473 79.012,133.322 79.012,118.2C79.012,115.617 79.453,111.436 81.325,108.237C69.58,115.794 65.936,125.853 65.936,134.661C65.936,142.316 65.666,146.135 61.753,146.135C59.707,146.135 59.172,144.27 58.459,144.27C57.927,144.27 57.655,145.871 57.655,146.311C57.653,149.606 60.059,151.475 62.46,151.475" style="fill:white;fill-rule:nonzero;"/>
        <path d="M216.66,62.59C220.574,62.59 223.514,60.812 223.514,59.742C223.514,59.39 222.98,59.122 221.822,59.122C220.664,59.122 218.347,59.032 213.984,58.32C210.24,57.698 207.395,56.273 206.327,56.273C205.968,56.273 205.788,56.452 205.788,56.717C205.788,59.032 210.066,62.59 216.66,62.59M197.263,51.291C198.39,50.532 203.403,51.735 209.892,48.529C210.691,48.09 211.495,47.909 212.203,47.909C215.323,47.909 214.519,51.467 217.37,51.467C219.597,51.467 222.447,49.599 224.14,49.599C226.794,49.599 230.618,57.963 230.618,61.879C230.618,66.417 223.786,69.175 215.679,69.175C203.855,69.175 196.731,58.856 196.731,52.18C196.729,51.646 196.993,51.467 197.263,51.291" style="fill:white;fill-rule:nonzero;"/>
        <path d="M64.33,185.016C61.395,185.733 56.675,190.353 56.675,197.656C56.675,206.374 66.022,219.812 81.411,219.812C94.405,219.812 97.604,210.83 97.604,204.769C97.604,191.336 89.335,181.902 78.568,181.902C72.695,181.902 67.446,186.177 67.446,192.489C67.446,198.367 71.893,207.176 82.481,207.176C87.463,207.176 90.398,203.612 90.398,199.526C90.398,195.52 86.752,190.007 81.41,190.007C79.81,190.007 78.658,191.065 78.658,192.759C78.658,194.894 81.593,197.032 85.237,197.032C86.128,197.032 86.842,196.857 87.199,196.676C87.374,196.947 87.464,197.39 87.464,197.746C87.464,199.793 85.507,201.041 82.482,201.041C77.947,201.041 73.582,197.656 73.582,192.312C73.582,189.115 76.343,186.798 80.346,186.798C88.265,186.798 92.98,193.826 92.98,200.861C92.98,207.175 89.514,210.83 82.396,210.83C68.156,210.829 61.217,198.013 64.33,185.016" style="fill:white;fill-rule:nonzero;"/>
        <path d="M158.996,219.364C158.996,221.329 160.599,222.926 162.555,222.926C164.512,222.926 166.115,221.329 166.115,219.364C166.115,217.405 164.512,215.804 162.555,215.804C160.599,215.805 158.996,217.405 158.996,219.364M165.892,237.149C170.165,237.149 169.944,236.795 171.282,236.795C172.614,236.795 172.704,237.594 172.704,238.13C172.704,240.09 168.336,242.496 160.6,242.496C156.062,242.496 153.306,240.09 152.504,237.419C148.057,240.267 141.293,242.85 134.619,242.85C116.382,242.85 111.755,234.923 106.062,232.353C101.696,230.391 95.028,234.22 85.683,223.81C86.931,224.077 88.623,224.166 89.958,224.166C98.139,224.166 102.497,220.168 102.497,213.756C102.497,212.949 102.41,212.071 102.322,211.274C104.813,212.252 110.506,216.517 111.844,224.077C112.024,224.968 115.668,225.766 117.981,225.766C121.186,225.766 125.276,224.431 125.9,219.188C136.577,218.299 143.788,211.982 145.303,203.967C149.124,205.215 153.482,208.687 154.549,210.469C156.061,209.935 157.838,209.671 159.885,209.671C162.73,209.671 165.94,210.199 169.763,211.363C169.944,210.199 170.117,208.776 171.9,208.776C174.571,208.776 173.857,211.716 174.746,213.398C175.195,214.287 177.422,214.821 177.422,216.603C177.422,218.298 175.988,218.919 175.106,218.919C174.747,218.919 174.302,218.832 174.033,218.742C172.261,219.363 172.171,232.175 164.693,232.175C159.177,232.175 154.107,227.637 151.88,221.945C151.253,220.257 149.923,219.187 148.678,219.187C147.256,219.187 146.454,219.454 144.767,221.329C139.962,226.567 131.953,231.104 122.077,231.104C119.05,231.104 116.649,230.836 116.025,230.836C115.668,230.836 115.668,230.927 115.668,231.014C115.668,231.638 118.693,234.044 125.277,234.044C140.936,234.044 144.767,225.233 147.256,225.233C147.613,225.233 148.678,225.233 149.3,226.656C152.944,235.192 160.91,237.149 165.892,237.149" style="fill:white;fill-rule:nonzero;"/>
        <path d="M219.865,180.476C217.993,180.476 207.66,194.269 201.002,194.269C199.399,194.269 198.066,191.247 198.066,188.938C198.066,187.693 198.865,186.801 201.715,186.174C217.014,182.705 213.629,171.224 226.702,171.224C233.905,171.224 241.922,176.121 241.922,187.156C241.922,198.904 225.2,213.49 222.71,213.49C220.663,213.49 218.437,210.554 218.437,208.597C218.437,207.979 218.707,207.175 220.489,206.466C229.014,203.076 233.906,195.249 233.906,191.246C233.906,190.351 233.467,189.475 232.303,189.475C230.796,189.475 224.312,204.235 217.104,204.235C212.112,204.235 207.036,199.708 207.036,197.566C207.036,194.004 221.463,187.422 221.463,182.436C221.463,180.563 220.574,180.476 219.865,180.476M229.459,174.963C228.216,174.963 226.878,175.943 226.878,178.35C226.878,181.013 228.925,182.705 230.083,183.24C230.707,183.594 231.69,183.951 232.658,183.951C235.244,183.951 237.291,183.24 237.291,181.098C237.291,178.35 233.282,174.963 229.459,174.963" style="fill:white;fill-rule:nonzero;"/>
        <path d="M63.261,71.93C63.261,73.891 64.864,75.493 66.823,75.493C68.777,75.493 70.379,73.891 70.379,71.93C70.379,69.977 68.777,68.372 66.823,68.372C64.864,68.373 63.261,69.978 63.261,71.93M58.634,63.924C58.634,65.879 60.236,67.484 62.193,67.484C64.152,67.484 65.752,65.879 65.752,63.924C65.752,61.966 64.152,60.363 62.193,60.363C60.236,60.363 58.634,61.966 58.634,63.924M55.435,88.303C53.386,88.837 49.118,91.328 49.118,95.777C49.118,98.978 51.606,101.025 54.723,101.025C56.326,101.025 57.478,100.671 58.19,100.136C55.702,97.735 54.811,95.062 54.811,92.398C54.811,90.527 55.078,89.37 55.435,88.303M33.639,89.55C33.552,89.996 33.552,90.437 33.552,90.882C33.552,95.062 35.773,97.38 38.708,97.38C40.926,97.38 43.512,96.044 45.823,93.104C44.847,93.281 43.689,93.37 42.618,93.37C39.329,93.37 35.772,92.485 33.639,89.55M30.521,97.467C30.521,104.228 32.567,107.433 36.214,107.433C39.062,107.433 42.888,105.384 47.425,101.472C43.953,102.273 41.282,102.806 38.882,102.806C35.683,102.805 33.194,101.56 30.521,97.467M53.565,61.877C54.009,60.453 54.364,58.676 54.364,56.717C54.364,52.449 52.407,45.951 46.355,45.951C42.888,45.951 40.395,48.707 40.395,52.002C40.395,59.033 47.425,61.877 53.565,61.877M45.998,84.301C43.065,84.301 39.863,80.655 39.863,77.359C39.863,75.584 41.196,73.354 42.174,73.354C42.528,73.354 42.708,73.625 42.798,74.248C43.332,78.608 46.177,81.099 48.848,82.342C49.118,82.521 49.292,82.609 49.292,82.786C49.292,83.409 47.6,84.301 45.998,84.301M54.189,73.444C54.803,74.283 56.5,75.315 56.5,75.937C56.5,77.18 55.789,78.786 54.364,78.786C51.249,78.786 48.761,74.069 48.761,71.397C48.761,69.71 49.739,69.532 51.069,69.532C51.696,69.532 51.96,69.62 52.407,69.889C53.208,70.333 53.208,72.109 54.189,73.444M33.284,84.479C33.115,84.751 33.014,85.102 33.014,85.458C33.014,86.259 33.905,87.15 34.701,87.15C35.415,87.15 35.859,86.971 36.213,86.971C38.347,86.971 40.751,88.482 44.225,88.482C46.267,88.482 48.67,87.857 51.695,86.348C58.102,83.142 60.595,75.225 60.595,73.89C60.595,72.198 59.236,72.417 58.101,70.862C56.964,69.311 57.398,67.938 56.676,67.213C56.263,66.798 54.989,66.772 53.384,66.591C52.847,66.533 52.139,66.503 51.425,66.503C48.493,66.503 45.013,66.863 41.105,69.352C33.387,74.278 34.521,82.431 33.284,84.479M62.817,80.919C60.86,83.232 58.814,87.15 58.814,91.149C58.814,95.952 61.752,99.957 66.289,99.957C70.649,99.957 72.696,96.221 72.696,92.397C72.696,86.438 67.27,82.252 62.817,80.919M43.779,63.838C43.779,63.838 41.196,65.792 37.994,65.792C34.173,65.792 31.145,62.947 31.145,58.945C31.145,56.186 32.567,53.338 35.859,51.913C35.772,52.45 35.772,52.894 35.772,53.427C35.772,58.498 38.618,62.324 43.779,63.838" style="fill:white;fill-rule:nonzero;"/>
        <path d="M200.642,93.37C200.642,95.423 202.34,97.113 204.366,97.113C206.413,97.113 208.11,95.424 208.11,93.37C208.11,91.328 206.413,89.639 204.366,89.639C202.34,89.639 200.642,91.328 200.642,93.37M200.912,104.582C200.912,106.897 202.784,108.768 205.079,108.768C207.395,108.768 209.267,106.897 209.267,104.582C209.267,102.272 207.395,100.404 205.079,100.404C202.784,100.404 200.912,102.272 200.912,104.582M188.093,112.147C188.093,115.526 190.848,118.288 194.238,118.288C197.618,118.288 200.384,115.526 200.384,112.147C200.384,108.768 197.618,106.008 194.238,106.008C190.848,106.009 188.093,108.768 188.093,112.147M191.382,99.601C191.382,101.56 192.985,103.164 194.946,103.164C196.903,103.164 198.506,101.56 198.506,99.601C198.506,97.645 196.903,96.043 194.946,96.043C192.984,96.043 191.382,97.645 191.382,99.601M179.737,106.721C179.737,108.679 181.34,110.276 183.28,110.276C185.237,110.276 186.844,108.679 186.844,106.721C186.844,104.761 185.237,103.163 183.28,103.163C181.34,103.164 179.737,104.761 179.737,106.721M188.892,85.905C188.892,89.016 191.472,91.594 194.587,91.594C197.707,91.594 200.288,89.016 200.288,85.905C200.288,82.786 197.707,80.211 194.587,80.211C191.472,80.21 188.892,82.786 188.892,85.905M195.57,74.96C195.57,76.823 197.083,78.337 198.955,78.337C200.822,78.337 202.34,76.823 202.34,74.96C202.34,73.089 200.822,71.576 198.955,71.576C197.083,71.576 195.57,73.09 195.57,74.96M179.473,83.498C179.473,85.37 180.986,86.885 182.836,86.885C184.708,86.885 186.221,85.37 186.221,83.498C186.221,81.632 184.708,80.121 182.836,80.121C180.985,80.121 179.473,81.632 179.473,83.498M179.023,95.064C179.023,98.091 181.429,100.491 184.432,100.491C187.462,100.491 189.874,98.091 189.874,95.064C189.874,92.04 187.462,89.638 184.432,89.638C181.43,89.639 179.023,92.041 179.023,95.064M167.812,100.756C167.812,103.521 170.118,105.828 172.878,105.828C175.633,105.828 177.955,103.521 177.955,100.756C177.955,98.004 175.633,95.687 172.878,95.687C170.117,95.687 167.812,98.003 167.812,100.756M170.831,88.215C170.831,90.17 172.434,91.775 174.391,91.775C176.353,91.775 177.955,90.17 177.955,88.215C177.955,86.259 176.352,84.657 174.391,84.657C172.434,84.657 170.831,86.259 170.831,88.215M202.07,115.616C202.07,113.839 203.672,112.325 205.433,112.325C207.395,112.325 208.908,113.839 208.908,115.616C208.908,117.663 207.395,119.089 205.433,119.089C203.672,119.089 202.07,117.663 202.07,115.616" style="fill:white;fill-rule:nonzero;"/>
        <path d="M204.365,217.941C204.814,217.941 205.344,218.206 205.344,219.808C205.344,221.77 204.455,224.345 201.272,226.389C199.041,227.902 196.015,229.15 191.562,229.232C192.276,227.103 192.81,224.879 192.81,222.749C192.81,222.037 192.72,221.501 192.63,220.702L193.788,220.702C200.822,220.702 203.853,217.941 204.365,217.941M205.079,209.134C205.804,208.524 205.968,207.534 205.968,206.551L205.968,204.504C205.968,201.923 202.071,200.416 196.724,200.416C190.224,200.416 186.755,203.346 186.755,204.594L186.755,208.687C186.755,210.382 190.674,212.072 195.481,212.072C199.31,212.071 202.784,211.093 205.079,209.134M209.712,210.115C207.396,211.897 201.981,215.892 192.984,215.892C188.177,215.892 186.041,214.376 185.327,214.376C184.432,214.376 183.455,215.268 182.476,216.428C180.361,218.919 177.6,223.552 177.6,228.613C177.6,232.176 180.361,235.726 185.506,235.726C202.159,235.726 214.608,225.319 214.608,216.872C214.608,212.071 211.764,210.115 209.712,210.115" style="fill:white;fill-rule:nonzero;"/>
        <path d="M212.826,135.284C212.826,137.505 213.54,140.084 215.766,140.084C217.638,140.084 219.241,137.244 219.241,134.126C219.241,130.567 218.612,127.809 218.612,126.381C218.612,125.764 218.882,125.495 219.241,125.495C220.579,125.585 221.822,129.233 223.244,129.233C224.852,129.233 227.237,126.293 228.216,126.293C228.481,126.293 228.57,126.65 228.57,126.74C228.57,128.074 226.523,131.014 226.523,132.169C226.523,133.146 231.684,133.324 231.684,134.215C231.684,135.55 226.274,135.55 223.688,136.709C221.198,137.773 219.68,139.108 219.68,140.891C219.68,142.669 221.467,143.024 223.958,143.024C229.907,143.024 234.085,139.823 235.418,139.823C235.688,139.823 235.861,140 235.861,140.267C235.861,141.158 232.837,144.093 232.837,145.429C232.837,146.94 238.358,148.713 238.274,149.607C238.184,149.873 237.825,149.961 237.201,149.961C236.217,149.961 234.71,149.696 233.552,149.696C232.838,149.696 232.214,149.782 231.949,150.136C231.331,150.851 232.124,155.566 230.886,155.566C229.728,155.566 226.698,145.071 219.86,145.071C218.881,145.071 218.172,145.869 218.172,147.203C218.172,150.761 221.642,154.853 224.936,156.811C226.433,157.79 228.929,158.77 228.929,159.307C228.929,160.371 223.243,159.397 223.243,161.172C223.243,162.775 223.958,165.18 223.958,166.597C223.958,167.046 223.868,167.58 223.334,167.58C222.271,167.58 219.68,162.686 218.437,162.686C217.369,162.686 215.058,165.618 214.069,165.618C213.81,165.618 213.63,165.353 213.63,165.09C213.63,163.043 216.925,158.416 216.925,153.878C216.925,151.742 216.655,147.114 214.07,147.114C211.939,147.114 209.533,150.496 208.465,153.878C207.841,155.832 208.285,163.397 206.862,163.397C205.524,163.397 205.879,158.326 204.101,158.326C202.785,158.326 199.934,160.725 198.955,160.725C198.775,160.725 198.596,160.637 198.596,160.459C198.596,159.396 201.182,155.921 201.182,155.209C201.182,153.877 195.306,153.702 195.306,152.632C195.306,152.009 197.618,151.562 199.754,151.204C204.28,150.403 210.954,147.114 210.954,142.492C210.954,137.33 205.968,135.103 202.694,132.966C201.002,131.899 199.134,131.013 199.134,130.302C199.134,129.587 201.271,129.587 202.159,129.587C203.491,129.587 204.813,129.499 204.813,128.432C204.813,127.629 204.628,126.032 204.628,124.784C204.628,123.893 204.718,123.182 205.077,123.182C206.41,123.182 208.282,127.541 209.176,127.541C210.598,127.541 212.555,123.983 213.899,123.983C214.337,123.983 214.517,124.25 214.517,125.052C214.519,128.342 212.826,132.075 212.826,135.284M170.387,109.215C171.366,116.775 181.52,112.948 181.52,122.111C181.52,123.449 181.16,125.407 181.16,127.094C181.16,129.057 181.341,130.747 182.837,130.747C184.35,130.747 184.709,129.68 184.709,128.252C184.709,126.828 184.35,125.052 184.35,124.071C184.35,120.955 186.577,120.246 187.914,120.246C191.299,120.246 193.879,123.714 198.956,123.714C197.798,129.411 186.042,127.897 186.042,134.126C186.042,137.245 189.156,137.951 191.209,137.951C193.081,137.951 193.705,137.684 193.705,136.085C193.705,135.191 193.519,134.214 193.519,133.592C193.519,133.235 193.789,132.881 194.238,132.881C196.201,132.881 205.794,140.178 205.794,142.403C205.794,144.447 195.661,146.495 192.721,146.495C191.833,146.495 191.653,145.87 191.653,145.514C191.653,144.894 193.166,143.023 193.166,141.956C193.166,141.158 191.834,140.622 188.27,140.622C186.578,140.622 185.33,140.801 185.33,142.139C185.33,144.535 189.248,147.472 189.248,149.696C189.248,151.474 188.181,152.544 185.33,152.544C182.929,152.544 179.296,150.671 179.296,147.563C179.296,145.072 181.86,142.584 181.86,141.07C181.86,140.623 181.522,139.91 180.454,139.91C177.159,139.91 176.266,148.627 164.604,149.606C166.476,147.919 168.073,146.048 168.073,142.228C168.073,140.357 167.635,138.84 167.635,136.799C167.635,134.127 168.872,132.792 170.655,132.792C173.945,132.792 175.552,137.417 177.694,137.417C178.852,137.417 180.095,136.353 180.095,134.75C180.095,127.989 167.101,128.966 167.101,119.445C167.098,116.864 167.98,113.661 170.387,109.215" style="fill:white;fill-rule:nonzero;"/>
        <path d="M187.289,167.046C187.289,168.289 188.178,169.273 189.426,169.273C190.848,169.273 191.741,168.025 191.741,166.602C191.741,164.735 190.05,162.152 188.447,162.152C187.733,162.152 188.003,163.219 187.817,164.378C187.733,165.264 187.289,166.332 187.289,167.046M182.656,155.209C192.006,156.991 197.083,164.021 197.083,170.605C197.083,175.142 194.237,179.32 189.251,179.32C184.708,179.32 181.43,176.211 181.43,171.223C181.43,167.49 184.349,163.574 184.349,159.745C184.349,158.237 183.904,156.723 182.656,155.209M170.831,170.341C171.72,171.224 171.989,172.117 171.989,173.006C171.989,174.342 171.365,175.767 171.365,177.279C171.365,179.408 172.968,181.28 175.279,181.28C177.775,181.28 179.472,179.32 179.472,177.014C179.473,173.63 175.987,170.341 170.831,170.341M200.288,164.646C200.912,165.618 201.182,166.601 201.182,167.49C201.182,169.981 199.49,172.292 199.49,174.876C199.49,177.814 201.717,180.209 205.08,180.209C208.728,180.209 211.23,177.279 211.23,173.805C211.229,169.093 206.951,165.09 200.288,164.646M172.968,159.924C177.067,160.46 178.045,161.882 178.045,163.043C178.045,165.001 176.263,165.618 174.57,165.618C173.327,165.618 171.899,165.353 170.386,165.353C168.424,165.353 166.473,165.797 164.87,167.667C166.023,167.844 167.716,168.647 167.716,170.43C167.716,175.586 153.391,171.313 153.391,184.574C153.391,191.6 160.688,199.258 171.719,199.258C177.42,199.258 181.069,197.386 181.069,195.249C181.069,193.562 178.045,194.715 178.045,193.29C178.045,192.671 179.113,191.51 179.113,190.529C179.113,190.095 178.759,189.292 178.045,189.292C176.442,189.292 173.412,191.864 167.273,191.864C162.465,191.864 157.753,189.114 157.753,185.376C157.753,184.574 158.107,184.128 158.637,184.128C159.176,184.128 159.89,184.484 160.509,184.484C161.048,184.484 161.133,184.128 161.133,183.149C161.133,182.166 161.133,179.408 162.82,179.408C164.517,179.408 167.717,185.639 180.008,185.639C184.085,185.639 192.007,184.841 194.947,182.165C194.857,191.959 187.2,204.857 171.186,204.857C154.549,204.857 145.652,191.508 145.652,179.229C145.652,165.617 156.77,153.254 171.989,153.254C175.903,153.254 179.203,154.585 179.203,156.275C179.203,158.594 173.412,157.17 172.968,159.924" style="fill:white;fill-rule:nonzero;"/>
        <path d="M115.4,58.319C121.273,58.319 123.941,63.39 123.941,69.085C123.941,71.573 123.235,75.226 122.077,75.226C120.919,75.226 121.099,73.18 120.919,71.309C120.742,68.907 120.298,68.374 119.497,68.374C117.979,68.374 117.006,71.932 117.006,75.226C117.006,77.268 117.363,79.585 118.96,79.585C119.851,79.585 120.652,79.138 121.186,78.605C120.829,82.696 117.802,86.26 113.534,86.26C105.702,86.26 102.767,77.091 101.876,71.754C97.162,76.737 92.807,80.387 84.975,80.387C77.68,80.387 74.385,75.047 74.385,69.978C74.385,68.461 74.919,64.549 76.791,64.549C79.012,64.549 77.056,71.841 81.416,71.841C82.487,71.841 84.441,70.95 85.506,68.017C86.13,66.236 86.487,64.371 86.487,62.767C86.487,60.364 85.953,58.855 84.179,58.855C82.661,58.855 80.794,60.005 80.167,60.631C82.306,54.223 87.468,50.932 93.156,50.932C100.189,50.932 103.926,57.163 103.926,64.103C103.926,65.08 103.834,66.147 103.656,67.126C106.679,62.146 110.865,58.319 115.4,58.319M108.549,68.819C108.549,67.304 108.192,66.948 107.835,66.948C106.944,66.948 105.971,68.017 104.546,70.423C104.726,73.624 105.26,75.048 106.148,75.048C107.124,75.048 108.549,71.932 108.549,68.819M96.359,72.467C97.338,72.467 98.583,71.397 100.901,68.819C101.076,67.661 101.076,66.591 101.076,65.256C101.076,63.481 100.365,61.523 99.299,61.523C96.626,61.523 95.293,68.641 95.293,70.512C95.293,71.573 95.825,72.467 96.359,72.467M110.865,80.388C113.086,80.388 115.58,71.842 115.58,66.506C115.58,65.346 115.4,64.104 114.869,64.104C112.997,64.104 109.885,72.912 109.885,77.715C109.884,79.585 110.328,80.388 110.865,80.388M89.069,75.495C92.091,75.495 95.555,59.121 95.555,56.363C95.555,55.648 95.293,55.115 94.672,55.115C91.914,55.115 88.088,70.686 88.088,74.157C88.088,74.782 88.265,75.495 89.069,75.495" style="fill:white;fill-rule:nonzero;"/>
        <path d="M98.76,82.252C94.939,82.252 94.76,86.885 94.76,96.221C91.914,90.085 87.199,83.5 81.681,83.5C77.948,83.5 76.52,85.994 76.52,90.347C76.52,91.238 76.61,92.576 76.79,93.369C77.234,91.863 78.66,91.238 80.436,91.238C84.265,91.238 88.89,94.173 91.915,98.18C88.446,97.557 85.061,96.932 82.219,96.932C80.437,96.932 78.834,97.11 77.502,97.733C74.919,98.887 71.449,102.716 71.449,108.502C71.449,109.39 71.539,110.367 71.719,111.434C74.828,104.495 83.107,101.381 88.446,101.381C89.517,101.381 90.313,101.469 90.934,101.56C88.179,104.048 87.555,108.411 87.377,111.346C87.29,112.77 86.753,112.861 85.772,112.861C85.772,115.793 88.088,120.159 88.088,122.379C88.088,123.18 87.644,123.893 87.199,124.071C87.199,127.987 91.113,130.835 91.113,133.323C91.113,133.946 90.933,134.483 90.666,134.75C90.933,136.351 95.238,139.045 95.795,140.396C96.478,142.037 97.247,142.316 97.694,142.316C99.206,142.316 101.607,140.531 101.607,138.927C101.607,138.394 101.163,137.771 100.811,137.503C99.119,136.263 98.228,133.591 97.514,131.814C96.89,131.814 96.086,131.552 95.804,130.503C95.317,128.659 95.296,125.227 94.579,123.179C93.424,122.914 92.887,122.468 92.887,120.068C92.887,118.91 93.603,114.371 93.603,112.769C93.066,112.769 92.36,112.413 92.36,111.345C92.36,108.501 95.205,106.273 96.001,102.628C101.075,106.362 102.318,110.185 102.318,113.572C102.318,115.349 102.053,117.041 101.694,118.644C105.436,116.773 111.041,114.017 111.041,108.41C111.041,105.117 109.529,101.469 99.473,100.045C102.583,98.887 106.504,98.27 109.793,98.27C115.489,98.27 118.781,100.045 119.492,104.047C120.648,102.272 121.539,100.221 121.539,98.356C121.539,93.994 117.89,91.152 113.265,91.152C107.837,91.152 103.03,93.994 97.873,97.469C100.186,92.662 101.784,89.817 104.637,89.817C105.079,89.817 105.523,89.91 105.97,89.996C104.902,86.083 100.899,82.252 98.76,82.252" style="fill:white;fill-rule:nonzero;"/>
        <path d="M248.671,146.401C253.124,146.401 256.689,152.184 256.689,158.948C256.689,166.152 253.304,173.984 247.27,179.317C247.18,167.313 232.484,171.133 232.484,162.417C232.484,158.682 235.155,156.188 238.365,156.188C241.21,156.188 243.436,156.989 245.039,158.593C243.436,157.079 242.638,154.943 242.638,152.899C242.637,149.515 244.773,146.401 248.671,146.401" style="fill:white;fill-rule:nonzero;"/>
        <path d="M182.661,55.383C181.947,54.224 179.287,53.606 178.045,53.606C174.121,53.606 171.455,56.363 170.921,58.856C170.567,57.962 170.297,56.897 170.297,55.827C170.297,51.913 172.968,47.11 179.473,47.11C185.153,47.11 187.373,50.132 188.178,50.132C189.066,50.132 189.959,49.241 190.674,49.241C191.652,49.241 191.652,50.755 191.652,51.824C191.652,55.382 190.05,61.523 186.042,63.748C185.328,62.232 183.905,60.542 181.604,59.475C180.986,59.211 180.716,58.677 180.716,58.143C180.716,57.161 181.604,55.916 182.661,55.383M169.229,61.878C171.545,64.103 173.587,65.079 176.083,65.079C177.066,65.079 178.225,64.816 178.849,64.816C179.648,64.816 180.182,65.168 180.182,65.791C180.182,66.772 179.287,68.374 178.225,69.266C179.288,69.71 180.452,69.891 181.7,69.891C186.75,69.891 192.541,66.683 192.541,58.679C193.609,60.097 194.238,63.038 194.238,64.373C194.238,74.069 187.11,77.805 180.542,77.805C176.264,77.805 174.122,76.381 173.588,76.381C171.9,76.381 171.99,79.763 170.832,79.677C168.786,79.319 166.919,74.781 166.919,69.978C166.918,67.128 167.632,64.104 169.229,61.878" style="fill:white;fill-rule:nonzero;"/>
        <path d="M93.069,5.29C93.069,4.757 90.399,4.22 86.752,4.22C80.969,4.22 81.771,9.03 77.323,9.03C72.696,9.03 73.848,4.042 67.976,4.042C64.419,4.042 61.127,4.667 61.127,5.47C61.127,6.535 65.308,6.093 65.308,9.031C65.308,12.144 56.326,13.035 56.326,14.904C56.326,15.524 57.032,15.791 57.923,15.791C59.882,15.791 62.994,14.904 65.221,14.904C66.467,14.904 67.625,15.167 67.625,16.325C67.625,18.552 62.818,22.554 62.818,24.334C62.818,24.867 63.262,25.049 63.706,25.049C65.488,25.049 68.511,20.507 71.361,20.507C76.076,20.507 72.964,30.56 75.542,30.56C78.213,30.56 77.057,20.683 80.878,20.683C83.998,20.683 86.309,27.534 88.446,27.534C88.98,27.534 89.424,27.09 89.424,26.467C89.424,24.601 86.754,20.773 86.754,18.282C86.754,16.768 87.822,16.055 89.248,16.055C91.292,16.055 94.05,17.301 95.56,17.301C96.092,17.301 96.628,17.125 96.628,16.502C96.628,14.368 88.714,12.053 88.714,9.297C88.712,6.535 93.069,6.535 93.069,5.29M113.977,14.369C113.977,15.968 119.585,19.441 122.164,19.441C123.674,19.441 124.121,17.392 124.121,15.255C124.121,12.588 122.971,12.499 120.652,12.499C117.716,12.498 113.977,13.299 113.977,14.369M123.234,31.983C123.234,26.643 108.797,16.947 108.638,12.767C108.622,12.385 108.828,12.002 109.154,11.664C111.626,9.057 121.896,7.157 121.896,4.934C121.896,3.781 119.759,3.781 118.691,3.781C110.417,3.781 98.317,6.804 98.317,9.739C98.317,12.767 109.171,20.153 109.171,23.8C109.171,24.781 108.547,25.135 107.566,25.135C104.544,25.135 97.96,21.486 94.848,21.486C93.423,21.486 92.889,22.463 92.889,23.889C92.889,28.16 97.961,36.255 97.961,38.652C97.961,38.919 97.871,39.277 97.514,39.277C95.912,39.277 88.357,30.384 85.684,30.384C84.703,30.384 84.616,31.714 84.616,33.675L84.616,36.699C84.616,38.743 84.526,39.99 83.551,39.99C81.238,39.99 80.166,33.496 77.946,33.496C75.632,33.496 75.185,45.06 72.964,45.06C70.381,45.06 72.607,32.337 70.113,32.337C67.361,32.337 64.243,40.791 62.284,40.791C61.573,40.791 61.398,40.078 61.398,39.456C61.398,36.878 62.905,32.695 62.905,30.206C62.905,28.958 62.548,28.246 61.485,28.246C58.725,28.246 52.672,32.695 50.363,32.695C50.006,32.695 49.562,32.519 49.562,32.162C49.562,30.031 59.258,23.267 59.258,20.243C59.258,17.302 45.91,19.262 45.91,15.878C45.91,13.035 55.434,10.098 55.434,7.163C55.434,4.58 44.133,3.425 39.775,3.425C34.524,3.425 31.679,4.043 31.679,5.556C31.679,7.873 43.599,8.586 43.599,10.628C43.599,12.588 31.232,17.838 31.232,20.859C31.232,23.532 48.67,21.039 48.67,23.799C48.67,26.821 33.458,39.9 33.458,44.258C33.458,45.239 34.172,45.685 35.148,45.685C39.775,45.685 51.782,36.877 55.077,36.877C56.235,36.877 56.325,38.297 56.325,39.545C56.325,41.86 55.524,45.415 55.524,47.999C55.524,50.043 56.056,51.467 57.833,51.467C61.127,51.467 64.152,45.863 66.379,45.863C69.221,45.863 67.534,62.322 71.805,62.322C75.451,62.322 76.967,44.528 79.278,44.528C81.594,44.528 83.464,49.689 85.595,49.689C88.266,49.689 87.02,40.704 89.871,40.704C92.98,40.704 101.878,51.381 105.881,51.381C107.124,51.381 107.568,50.4 107.568,49.152C107.568,44.438 100.989,33.764 100.989,30.385C100.989,29.495 101.251,29.227 102.232,29.227C105.704,29.227 115.847,34.03 120.651,34.03C122.253,34.03 123.234,33.141 123.234,31.983M41.997,26.822C41.997,28.604 35.236,34.563 32.838,34.563C31.949,34.563 31.68,33.496 31.68,32.519C31.68,30.744 32.481,28.246 33.459,27.445C34.612,26.378 37.283,25.848 39.329,25.848C40.572,25.847 41.997,26.113 41.997,26.822M107.391,35.986C107.391,39.098 118.512,54.316 120.651,54.316C122.433,54.316 123.763,51.201 123.763,48.529C123.763,47.821 123.583,47.11 123.234,46.573C121.631,44.348 110.33,35.45 107.834,35.45C107.567,35.451 107.391,35.719 107.391,35.986" style="fill:white;fill-rule:nonzero;"/>
        <path d="M250.273,9.031C250.273,10.271 251.252,11.252 252.5,11.252C253.748,11.252 254.727,10.271 254.727,9.031C254.727,7.783 253.748,6.803 252.5,6.803C251.252,6.803 250.273,7.783 250.273,9.031M235.778,28.692C235.778,22.375 220.664,20.771 220.664,19.35C220.664,18.194 229.104,16.234 233.462,16.144C226.793,7.604 217.284,8.496 217.284,6.984C217.284,6.09 224.402,4.309 230.976,4.309C236.492,4.309 241.653,5.557 241.653,9.738C241.653,12.053 239.787,14.457 239.787,18.016C239.787,19.973 240.76,21.662 243.351,21.662C246.111,21.662 246.73,18.727 246.73,15.608C246.73,13.032 246.286,11.072 246.286,9.826C246.286,6.09 248.85,3.602 252.5,3.602C255.53,3.602 256.239,4.932 260.691,4.932C258.291,6.358 257.397,8.942 257.397,10.182C257.397,13.923 259.803,16.501 259.803,24.155C259.803,38.209 246.64,43.191 230.526,43.191C226.1,43.191 221.378,42.834 216.745,42.127C216.031,42.037 215.856,41.859 215.856,41.415C215.856,40.257 222.181,39.634 222.181,33.942C222.181,31.715 221.467,29.583 221.467,28.78C221.467,28.336 221.821,28.069 222.181,28.069C223.514,28.069 226.184,33.229 231.156,33.229C232.479,33.23 235.778,32.783 235.778,28.692M250.808,19.708C250.808,27.625 245.043,33.673 234.615,35.363C235.779,35.453 236.847,35.453 237.916,35.453C250.095,35.453 254.553,29.937 254.553,25.312C254.552,22.729 253.124,20.42 250.808,19.708" style="fill:white;fill-rule:nonzero;"/>
        <path d="M244.684,134.39C246.107,129.945 247.894,126.827 250.808,122.024C247.894,120.513 240.141,117.308 240.141,112.057C240.141,105.917 247.799,101.113 249.385,101.113C250.099,101.113 250.274,101.737 250.274,102.895C250.274,106.096 248.761,111.256 248.761,114.015C248.761,116.506 250.364,118.911 251.791,118.911C253.304,118.911 257.487,113.574 257.487,108.321C257.487,98.887 249.205,96.043 246.64,96.043C244.239,96.043 239.876,99.958 229.638,99.958C210.515,99.958 206.147,81.01 206.147,72.732C206.147,72.378 206.237,72.289 206.327,72.289C206.771,72.289 208.643,74.602 214.698,74.602C217.813,74.602 220.664,73.801 225.207,73.801C235.862,73.801 240.585,81.19 247.18,90.615C251.162,93.103 260.698,97.112 260.698,108.41C260.698,118.373 250.099,123.891 247.535,134.569C251.612,134.125 254.014,126.827 258.196,126.827C260.339,126.827 261.316,128.519 261.316,131.19C261.316,135.102 259.09,140.977 254.817,144.625C254.902,144.268 254.902,143.821 254.902,143.287C254.902,140.799 253.928,137.244 251.073,137.244C246.641,137.244 245.214,142.045 242.722,146.047C240.141,136.976 236.672,128.785 230.443,123.804C224.144,118.732 213.271,121.489 213.271,112.237C213.271,109.743 214.874,106.184 214.874,103.339C214.874,102.362 214.699,101.471 214.16,100.756C222.712,103.965 219.681,109.654 224.943,115.527C228.216,119.269 237.292,122.826 242.547,138.217C242.632,137.773 242.722,136.62 242.722,135.819C242.722,122.649 225.297,109.745 223.779,104.405C233.907,105.563 235.689,108.058 240.502,121.401C241.474,124.161 244.684,131.014 244.684,134.39M242.367,91.238C242.367,89.37 237.644,89.194 237.201,83.944C237.116,83.143 236.847,81.724 235.862,81.724C234.26,81.724 235.508,86.614 233.731,86.614C229.638,86.614 228.3,78.608 226.793,78.608C226.434,78.608 226.005,78.872 226.005,79.942C226.005,80.919 226.191,81.546 226.191,82.696C226.191,83.854 225.916,84.656 224.853,84.656C222.447,84.656 220.31,79.051 218.258,79.051C217.814,79.051 217.369,79.319 217.369,79.763C217.369,80.83 219.151,82.785 219.151,83.765C219.151,85.904 213.36,84.745 213.36,86.527C213.36,87.325 214.159,87.591 215.232,87.591C217.104,87.591 220.04,86.795 221.552,86.795C222.446,86.795 223.778,86.971 223.778,88.124C223.778,89.37 220.574,90.971 220.574,92.129C220.574,92.663 221.113,92.925 221.553,92.925C223.959,92.925 228.216,88.75 231.241,88.75C231.775,88.75 233.108,89.016 233.108,89.817C233.108,90.971 230.084,93.015 230.084,94.708C230.084,95.152 230.354,95.687 230.888,95.687C232.48,95.687 234.616,91.507 237.646,91.507C238.81,91.507 240.502,91.951 241.39,91.951C242.104,91.951 242.367,91.507 242.367,91.238" style="fill:white;fill-rule:nonzero;"/>
        <path d="M176.083,37.939C177.511,37.939 177.775,41.416 178.045,43.458C178.225,44.528 178.404,44.616 178.849,44.616C179.917,44.616 181.604,40.523 182.746,40.523C184.438,40.523 188.981,45.239 196.549,45.239C207.311,45.239 217.459,37.674 217.459,24.334C217.459,11.432 208.374,3.869 195.835,3.869C189.869,3.869 185.507,6.804 183.19,6.804C181.789,6.894 179.647,3.336 178.579,3.336C178.135,3.336 177.69,4.22 177.69,5.737C177.69,6.716 177.69,9.826 176.622,9.826C174.475,9.826 166.209,3.693 166.209,5.912C166.209,7.963 171.72,14.19 171.72,15.789C171.72,17.39 166.294,18.907 166.294,19.972C166.294,21.928 172.079,22.285 172.079,24.779C172.079,27.264 166.024,29.224 166.024,31.096C166.024,32.603 172.079,31.54 172.079,33.409C172.079,35.274 167.632,41.501 167.632,43.279C167.632,43.726 167.717,43.726 168.07,43.726C169.763,43.726 174.835,37.939 176.083,37.939M178.669,23.353C178.669,22.376 175.19,20.508 175.19,19.441C175.19,19.262 175.37,19.172 175.639,19.172C176.622,19.172 178.31,19.53 179.648,19.53C180.806,19.53 180.986,14.547 181.858,14.547C182.477,14.547 183.546,19.261 184.529,19.261C185.687,19.261 187.818,17.926 188.712,17.926C188.893,17.926 189.066,18.013 189.066,18.194C189.066,18.817 186.839,21.215 186.839,21.928C186.839,22.729 191.832,23.71 191.832,24.421C191.832,25.312 186.755,25.224 186.755,26.025C186.755,26.642 188.621,29.136 188.621,29.937C188.621,30.115 188.531,30.205 188.357,30.205C187.648,30.205 184.882,28.957 184.084,28.957C183.101,28.957 181.52,32.603 180.716,32.603C180.451,32.603 180.272,32.249 180.272,31.802L180.097,28.244C180.097,27.89 179.917,27.531 179.473,27.531C178.405,27.531 176.353,27.443 175.729,27.443C175.28,27.443 175.105,27.356 175.105,27.177C175.104,26.467 178.669,23.977 178.669,23.353M196.015,40.257C189.786,40.257 185.687,37.146 185.687,35.54C185.687,34.739 186.221,34.208 186.935,34.208C188.892,34.208 193.164,37.229 194.587,37.229C194.946,37.229 195.216,37.056 195.216,36.521C195.216,34.917 193.698,32.25 193.698,30.918C193.698,30.561 193.968,30.296 194.502,30.296C196.908,30.296 200.468,31.276 202.34,31.276C202.958,31.276 203.138,30.918 203.138,30.561C203.138,28.604 197.353,24.781 197.353,23.621C197.353,22.554 204.545,20.949 204.545,19.262C204.545,17.48 194.767,18.728 194.767,17.036C194.767,15.79 196.639,13.657 196.639,12.677C196.639,12.23 196.28,12.054 195.66,12.054C194.856,12.054 190.584,13.746 188.802,13.746C187.913,13.746 186.839,13.567 186.839,12.319C186.839,10.271 190.314,8.049 195.745,8.049C204.545,8.049 209.802,14.1 209.802,24.243C209.802,37.056 200.822,40.257 196.015,40.257" style="fill:white;fill-rule:nonzero;"/>
        <path d="M135.778,194.181C135.778,194.985 135.508,195.879 134.797,196.767C133.821,194.985 131.061,194.091 129.813,194.097C120.651,194.097 124.12,207.352 114.332,207.352C110.241,207.352 109.884,206.821 108.372,206.821C107.748,206.821 107.393,207.088 107.393,207.62C107.393,209.935 110.685,215.626 119.847,215.626C129.014,215.626 137.825,210.025 137.825,203.077C137.825,201.924 137.558,200.683 137.024,199.438C137.378,198.904 138.272,198.544 139.073,198.544C140.49,198.544 141.291,200.151 142.627,200.151C144.055,200.151 145.121,199.083 145.121,197.658C145.121,196.5 144.499,195.698 143.431,195.159C144.145,194.631 144.674,193.736 144.674,192.758C144.674,191.246 143.608,189.828 141.826,189.828C141.025,189.828 140.491,190.096 139.872,190.706C139.695,189.114 138.804,187.6 137.112,187.6C135.779,187.6 134.798,188.58 134.798,190.096C134.797,191.51 135.778,192.668 135.778,194.181" style="fill:white;fill-rule:nonzero;"/>
        <path d="M111.843,197.565C109.17,197.565 105.169,194.714 105.169,193.112C105.169,191.774 106.417,191.063 107.393,191.063C109.617,191.063 113.62,193.826 113.62,196.14C113.62,196.762 113.173,197.565 111.843,197.565M87.02,177.639C94.138,179.41 97.697,183.237 98.406,187.78C99.117,192.134 100.009,195.697 101.698,197.476C103.925,199.972 108.285,202.188 112.111,202.188C115.313,202.188 117.891,201.13 117.891,198.19C117.891,194.985 113.533,187.78 107.124,187.78C106.505,187.78 105.704,187.873 104.815,187.873C104.014,187.873 102.853,187.69 102.142,187.069C100.72,185.821 100.278,179.146 97.605,175.146C94.672,170.696 91.468,169.448 87.11,169.448C83.998,169.448 80.524,171.14 80.524,173.631C80.523,175.146 81.327,176.211 87.02,177.639" style="fill:white;fill-rule:nonzero;"/>
        <path d="M131.686,166.776C131.686,162.776 123.407,162.687 123.407,156.635C123.407,155.119 124.386,152.541 126.345,149.781C127.151,154.406 129.013,156.81 133.021,158.323C140.938,161.258 142.006,165.704 142.006,170.427C142.006,178.437 136.4,188.4 121.989,188.4C110.418,188.4 102.141,178.08 102.141,169.357C102.141,166.953 102.763,164.289 104.278,164.289C105.616,164.289 106.06,165.353 107.123,166.421C111.131,170.427 115.489,171.492 121.806,171.492C127.502,171.493 131.686,169.18 131.686,166.776M132.04,173.186C128.989,174.582 127.772,174.339 127.772,177.459C127.772,178.617 127.502,180.122 127.502,180.923C127.502,181.991 127.679,182.615 128.925,182.615C132.13,182.615 137.201,177.191 137.201,172.561C137.201,171.313 136.487,170.785 135.686,170.785C134.972,170.785 134.179,172.205 132.04,173.186M103.654,128.253C103.654,122.556 117.181,119.535 117.181,112.503C117.181,111.347 116.734,109.302 115.933,107.79C120.65,110.367 124.12,114.732 124.12,118.288C124.12,124.428 117.716,127.274 117.716,131.103C117.716,135.552 124.567,136.263 124.567,141.779C124.567,146.311 118.068,151.565 118.068,157.438C118.068,161.973 121.275,165.706 126.167,166.333C124.567,166.69 123.142,166.954 121.632,166.954C112.639,166.954 103.387,159.575 103.387,150.76C103.387,146.401 105.262,142.583 108.104,139.821C110.595,141.957 113.085,143.379 114.688,143.379C116.113,143.379 116.734,142.671 116.734,141.604C116.735,138.304 103.654,135.285 103.654,128.253" style="fill:white;fill-rule:nonzero;"/>
        <path d="M52.047,172.205C52.42,175.246 55.255,177.549 58.459,177.191C59.609,177.065 60.683,176.748 61.397,176.3C62.105,179.145 64.496,180.975 67.724,180.555C71,180.129 73.229,177.548 72.875,174.253C72.78,173.367 72.605,172.825 72.341,172.204C72.341,172.204 72.775,172.159 73.102,172.099C76.312,171.493 78.477,168.912 78.211,165.797C77.857,162.594 74.982,160.216 71.989,160.586C70.831,160.729 69.758,161.17 69.046,161.793C68.242,159.129 65.733,156.811 62.306,157.377C59.215,157.889 57.166,160.515 57.478,163.839C57.528,164.381 57.655,164.999 57.922,165.617C57.922,165.617 57.396,165.696 57.036,165.749C54.44,166.137 51.625,168.749 52.047,172.205M68.674,168.707C68.891,170.565 67.566,172.239 65.708,172.459C63.852,172.676 62.167,171.343 61.953,169.489C61.739,167.628 63.066,165.946 64.925,165.729C66.784,165.512 68.462,166.843 68.674,168.707" style="fill:white;fill-rule:nonzero;"/>
        <path d="M122.007,318.606C124.522,318.606 128.842,317.786 132.243,312.341C130.3,308.021 128.911,299.292 128.716,296.113C127.716,279.857 133.978,264.568 140.835,264.145C145.861,263.843 149.88,268.598 150.343,276.305C151.578,296.563 144.835,305.019 141.459,312.309C142.03,315.135 146.824,319.954 151.348,319.954C153.022,319.954 155.046,319.118 155.548,318.436C155.215,317.269 154.871,315.759 154.871,313.57C154.871,301.833 162.418,291.935 168.959,291.935C174.158,291.935 177.178,298.816 177.178,303.348C177.178,308.707 172.646,313.078 165.946,317.269C167.12,318.436 169.293,319.285 171.144,319.285C180.71,319.285 185.713,307.709 189.42,297.139C190.086,295.124 191.266,292.279 193.608,292.279C197.638,292.279 199.32,318.771 206.009,318.771C208.864,318.771 211.213,312.899 211.213,308.379C211.213,305.024 210.038,304.686 210.038,299.825C210.038,294.466 212.889,289.941 216.755,289.941C219.103,289.941 219.943,292.278 219.943,295.124C219.943,305.853 212.222,325.812 200.831,325.812C192.269,325.812 192.935,311.054 189.922,311.054C186.553,311.054 181.857,325.981 165.273,325.981C162.576,325.981 159.736,324.643 157.393,321.952C153.372,324.643 150.006,325.812 146.148,325.812C139.953,325.812 137.269,319.439 134.754,319.439C131.732,319.439 128.387,325.981 118.317,325.981C110.265,325.981 108.922,315.256 106.08,315.256C103.563,315.256 99.707,325.981 95.517,325.981C88.465,325.981 86.968,307.372 80.754,307.372C75.891,307.372 60.528,326.272 56.356,325.842C54.68,325.664 53.974,324.411 54.153,322.74C54.388,320.418 56.385,314.21 57.194,311.271C58.55,306.17 59.796,300.581 60.491,298.796C61.181,297 63.045,295.718 64.536,295.856C65.289,295.927 65.517,297.329 65.75,298.487C66.593,302.635 67.781,306.867 69.113,306.867C71.466,306.867 79.248,291.934 83.77,291.934C89.312,291.934 89.978,315.42 97.517,315.42C100.039,315.42 101.888,312.405 103.562,308.706C103.731,302.492 105.405,293.621 110.437,293.621C113.962,293.621 115.641,301.498 113.116,308.378C113.118,316.594 118.48,318.606 122.007,318.606M256.149,298.484C254.07,307.109 247.772,319.785 238.369,319.785C236.19,319.785 232.335,318.944 232.335,316.761C232.335,314.412 247.101,314.087 247.101,302.844C247.101,298.661 243.246,292.783 237.539,292.783C229.992,292.783 222.637,301.007 222.637,312.408C222.637,322.631 228.983,325.983 235.356,325.983C246.429,325.983 253.135,316.921 256.652,309.38C258.34,314.411 259.328,325.983 263.532,325.983C265.209,325.983 266.388,325.145 268.403,320.621C273.417,309.381 278.287,296.475 285.004,296.475C287.51,296.475 286.009,301.007 292.042,301.007C294.888,301.007 296.892,298.661 296.892,295.964C296.892,292.107 293.375,289.097 288.013,289.097C272.253,289.097 268.906,312.742 266.389,312.742C262.195,312.742 263.533,293.791 260.513,293.791C257.825,293.79 256.509,296.99 256.149,298.484M144.914,280.831C144.623,276.145 143.492,274.03 140.969,274.199C137.632,274.403 136.085,284.908 136.77,295.951C137.204,303.156 138.277,304.264 139.277,304.198C141.125,304.087 145.557,291.215 144.914,280.831M117.645,270.984C117.407,268.297 115.302,266.457 112.447,266.457C109.266,266.457 106.27,269.8 106.587,273.999C106.791,276.762 108.422,279.038 111.625,279.038C115.302,279.038 117.983,274.845 117.645,270.984M169.8,305.187C169.8,302.345 168.288,299.997 166.452,299.997C164.93,299.997 161.423,301.663 161.423,307.033C161.423,311.24 162.915,313.234 163.597,314.088C168.451,312.577 169.8,308.542 169.8,305.187M235.355,299.505C238.882,299.505 239.892,303.672 239.051,306.197C238.204,308.709 235.196,311.567 230.499,312.408C229.49,309.886 228.982,299.505 235.355,299.505M42.28,287.595C41.799,286.073 40.403,282.646 40.025,280.113C39.184,274.512 42.111,270.824 44.803,269.977C47.82,269.134 48.999,270.646 50.163,274.176C51.678,279.535 51.842,286.574 51.337,296.636C50.676,310.388 43.798,326.991 26.696,326.648C11.936,326.325 5.405,316.761 4.725,302.175C4.405,295.298 4.892,288.431 7.742,278.703C9.254,273.502 10.603,271.645 15.286,270.645C18.974,269.976 18.644,273.827 17.806,278.369C15.968,288.431 15.117,293.285 15.796,304.687C16.454,316.76 21.999,321.458 28.033,321.458C37.092,321.63 41.109,314.086 42.793,303.177C44.128,294.468 43.123,290.271 42.28,287.595" style="fill:white;fill-rule:nonzero;"/>
    </g>
</svg>
