<?xml version="1.0" encoding="UTF-8" standalone="no"?>
<!DOCTYPE svg PUBLIC "-//W3C//DTD SVG 1.1//EN" "http://www.w3.org/Graphics/SVG/1.1/DTD/svg11.dtd">
<svg width="100%" height="100%" viewBox="0 0 361 197" version="1.1" xmlns="http://www.w3.org/2000/svg" xmlns:xlink="http://www.w3.org/1999/xlink" xml:space="preserve" xmlns:serif="http://www.serif.com/" style="fill-rule:evenodd;clip-rule:evenodd;stroke-linejoin:round;stroke-miterlimit:1.41421;">
    <g transform="matrix(1,0,0,1,-67.1055,-1255.67)">
        <g transform="matrix(1,0,0,1,-1686,1104.93)">
            <g transform="matrix(1,0,0,1,1686,-1104.93)">
                <path d="M237.948,1298.54C282.99,1292.84 311.879,1281.03 311.879,1281.03C311.879,1281.03 303.589,1300.63 281.793,1319.12C300.825,1316.68 311.879,1314.34 311.879,1314.34C311.879,1314.34 297.713,1331.66 257.494,1341.89L372.601,1341.89L367.478,1359.92L406.675,1359.92L409.1,1360.29C410.574,1361.03 412.079,1361.8 413.059,1363.09C414.533,1365.05 414.681,1367.59 414.371,1370.1L411.987,1378.49L427.568,1378.49L406.675,1451.99L67.105,1451.99L87.999,1378.49L101.784,1378.49L105.411,1365.73C106.544,1363.31 108.129,1361.15 110.563,1360.33C111.377,1360.06 112.258,1360.05 113.106,1359.92L133.806,1359.92L135.081,1355.43C114.636,1356.91 102.143,1358.87 95.875,1365.11L95.874,1365.1C104.249,1353.5 115.297,1346.96 177.288,1333.99C203.422,1328.52 223.483,1313.77 237.948,1298.54ZM131.532,1367.92L113.106,1367.92L112.953,1368.46L110.101,1378.49L93.824,1435.75L387.393,1435.75L403.67,1378.49L406.675,1367.92L365.204,1367.92L357.808,1393.94L311.016,1393.94L311.016,1400.14L317.131,1400.14L317.131,1408.63L311.016,1408.63L311.016,1415.33C311.016,1417.32 311.938,1418.05 313.685,1418.05C314.704,1418.05 315.869,1417.76 317.034,1417.22L317.034,1425.71C315.287,1426.63 312.666,1427.21 309.998,1427.21C303.498,1427.21 300.006,1424.2 300.006,1417.76L300.006,1408.63L296.9,1408.63L296.9,1400.14L300.006,1400.14L300.006,1393.94L177.475,1393.94C180.43,1395.51 182.677,1397.9 184.259,1400.77L174.892,1406.25C173.631,1403.82 171.835,1402.12 168.729,1402.12C164.895,1402.12 162.372,1405.47 162.372,1409.55L162.372,1409.65C162.372,1414.07 164.993,1417.17 168.729,1417.17C171.932,1417.17 173.728,1415.42 175.135,1412.9L184.501,1418.19C181.638,1423.24 176.882,1427.36 168.438,1427.36C159.025,1427.36 150.828,1420.28 150.828,1409.75L150.828,1409.65C150.828,1402.62 154.621,1396.83 160.321,1393.94L124.136,1393.94L131.532,1367.92ZM254.383,1427.31C260.692,1427.31 264.72,1424.5 267.097,1420.08L259.09,1415.52C258.023,1417.22 256.906,1418.19 254.965,1418.19C252.781,1418.19 251.034,1416.2 251.034,1413.43L251.034,1413.34C251.034,1410.71 252.781,1408.67 255.111,1408.67C256.906,1408.67 258.071,1409.64 258.993,1411.35L266.903,1406.88C264.865,1402.56 260.74,1399.56 254.917,1399.56C246.281,1399.56 240.461,1406.01 240.461,1413.43L240.461,1413.53C240.461,1420.96 246.33,1427.31 254.383,1427.31ZM345.908,1426.63L334.898,1426.63L334.898,1423.96C333.052,1425.95 330.575,1427.26 327.274,1427.26C322.182,1427.26 318.593,1424.35 318.593,1419.11L318.593,1419.02C318.593,1413.72 322.521,1410.77 328.681,1410.77C330.915,1410.77 333.781,1411.25 334.947,1411.74L334.947,1411.3C334.947,1408.87 333.441,1407.46 330.04,1407.46C327.323,1407.46 325.043,1408.04 322.715,1408.97L320.775,1401.64C323.831,1400.48 327.323,1399.7 331.935,1399.7C337.324,1399.7 340.816,1400.82 343.144,1403.14C345.132,1405.13 345.908,1407.7 345.908,1411.54L345.908,1426.63ZM212.697,1426.63L201.687,1426.63L201.687,1423.96C199.84,1425.95 197.363,1427.26 194.062,1427.26C188.97,1427.26 185.381,1424.35 185.381,1419.11L185.381,1419.02C185.381,1413.72 189.309,1410.77 195.469,1410.77C197.703,1410.77 200.569,1411.25 201.735,1411.74L201.735,1411.3C201.735,1408.87 200.229,1407.46 196.829,1407.46C194.111,1407.46 191.831,1408.04 189.503,1408.97L187.563,1401.64C190.619,1400.48 194.111,1399.7 198.723,1399.7C204.112,1399.7 207.604,1400.82 209.932,1403.14C211.92,1405.13 212.697,1407.7 212.697,1411.54L212.697,1426.63ZM295.099,1426.63L284.089,1426.63L284.089,1423.96C282.243,1425.95 279.765,1427.26 276.465,1427.26C271.372,1427.26 267.783,1424.35 267.783,1419.11L267.783,1419.02C267.783,1413.72 271.712,1410.77 277.871,1410.77C280.105,1410.77 282.971,1411.25 284.137,1411.74L284.137,1411.3C284.137,1408.87 282.631,1407.46 279.231,1407.46C276.513,1407.46 274.234,1408.04 271.906,1408.97L269.965,1401.64C273.021,1400.48 276.513,1399.7 281.125,1399.7C286.514,1399.7 290.006,1400.82 292.334,1403.14C294.323,1405.13 295.099,1407.7 295.099,1411.54L295.099,1426.63ZM227.501,1427.26C234.683,1427.26 238.999,1423.91 238.999,1418.14L238.999,1418.05C238.999,1412.61 234.974,1410.76 228.279,1409.11C225.606,1408.43 225.023,1408.09 225.023,1407.56L225.023,1407.46C225.023,1406.93 225.509,1406.64 226.578,1406.64C228.814,1406.64 232.209,1407.56 235.022,1409.11L238.514,1402.56C235.313,1400.62 230.997,1399.51 226.627,1399.51C219.736,1399.51 215.08,1402.76 215.08,1408.58L215.08,1408.67C215.08,1414.16 219.203,1415.96 225.898,1417.61C228.571,1418.29 229.057,1418.63 229.057,1419.16L229.057,1419.26C229.057,1419.89 228.522,1420.13 227.453,1420.13C224.441,1420.13 220.852,1419.16 217.651,1417.17L213.916,1423.43C217.7,1425.95 222.358,1427.26 227.501,1427.26ZM198.432,1420.91C197.023,1420.91 195.905,1419.89 195.905,1418.34L195.905,1418.24C195.905,1416.59 197.12,1415.27 199.306,1415.27C200.229,1415.27 201.201,1415.47 201.832,1415.71L201.832,1416.83C201.832,1419.36 200.375,1420.91 198.432,1420.91ZM331.644,1420.91C330.235,1420.91 329.117,1419.89 329.117,1418.34L329.117,1418.24C329.117,1416.59 330.332,1415.27 332.518,1415.27C333.441,1415.27 334.413,1415.47 335.044,1415.71L335.044,1416.83C335.044,1419.36 333.587,1420.91 331.644,1420.91ZM280.834,1420.91C279.425,1420.91 278.308,1419.89 278.308,1418.34L278.308,1418.24C278.308,1416.59 279.522,1415.27 281.708,1415.27C282.631,1415.27 283.603,1415.47 284.234,1415.71L284.234,1416.83C284.234,1419.36 282.777,1420.91 280.834,1420.91ZM165.46,1384.56C170.171,1384.56 173.817,1383.12 176.064,1380.88C177.929,1379.01 178.904,1376.59 178.904,1373.92C178.904,1369.38 175.682,1367.26 170.637,1365.39C166.519,1363.86 165.882,1363.69 165.882,1362.8C165.882,1361.95 166.774,1361.61 168.049,1361.61C171.188,1361.61 174.368,1363.1 176.615,1364.92L182.298,1358.14C179.074,1355.38 174.368,1353.69 169.068,1353.69C164.483,1353.69 160.836,1355.17 158.505,1357.5C156.724,1359.28 155.706,1361.57 155.706,1364.08C155.706,1368.45 158.293,1370.4 163.804,1372.43C168.134,1374.05 168.687,1374.35 168.687,1375.28C168.687,1376.13 167.794,1376.59 166.519,1376.59C163.38,1376.59 159.904,1375.24 156.512,1372.39L150.828,1379.18C154.433,1382.44 159.565,1384.56 165.46,1384.56ZM198.293,1353.69C193.413,1353.69 189.086,1355.68 185.991,1358.78C182.769,1362 180.818,1366.41 180.818,1371.12C180.818,1378.71 186.839,1384.56 195.577,1384.56C200.457,1384.56 204.784,1382.57 207.879,1379.48C211.101,1376.25 213.052,1371.84 213.052,1367.13C213.052,1359.54 207.031,1353.69 198.293,1353.69ZM287.455,1354.28L277.532,1354.28L269.559,1383.97L279.483,1383.97L287.455,1354.28ZM230.997,1354.28L219.419,1354.28L211.445,1383.97L221.37,1383.97L223.66,1375.49L226.12,1375.49L229.428,1383.97L240.116,1383.97L236.002,1374.09C238.377,1373.32 240.116,1372.26 241.388,1370.99C243.424,1368.96 244.272,1366.45 244.272,1363.65C244.272,1361.32 243.593,1359.11 241.939,1357.46C239.946,1355.47 236.469,1354.28 230.997,1354.28ZM275.281,1354.28L247.883,1354.28L245.635,1362.67L254.372,1362.67L248.646,1383.97L258.57,1383.97L264.296,1362.67L273.033,1362.67L275.281,1354.28ZM341.413,1354.07L331.573,1354.07L311.045,1383.97L321.86,1383.97L324.448,1379.98L334.839,1379.98L335.348,1383.97L345.908,1383.97L341.413,1354.07ZM301.289,1354.28L290.769,1354.28L282.794,1383.97L295.69,1383.97C302.561,1383.97 307.693,1382.06 311.255,1378.5C314.434,1375.32 316.13,1371.25 316.13,1366.79C316.13,1363.18 315.113,1360.3 312.908,1358.1C310.661,1355.85 307.058,1354.28 301.289,1354.28ZM196.256,1375.83C192.691,1375.83 190.782,1373.37 190.782,1370.23C190.782,1368.06 191.673,1365.82 193.201,1364.29C194.346,1363.14 195.832,1362.42 197.614,1362.42C201.179,1362.42 203.089,1364.88 203.089,1368.02C203.089,1370.19 202.197,1372.43 200.67,1373.96C199.524,1375.11 198.038,1375.83 196.256,1375.83ZM296.792,1375.32L295.053,1375.32L298.362,1362.93L300.016,1362.93C302.392,1362.93 303.876,1363.48 304.81,1364.41C305.573,1365.18 306.04,1366.24 306.04,1367.85C306.04,1369.68 305.149,1371.67 303.919,1372.9C302.392,1374.43 299.805,1375.32 296.792,1375.32ZM334.287,1372.95L328.859,1372.95L333.482,1365.73L334.287,1372.95ZM229.131,1368.41L225.526,1368.41L227.095,1362.59L230.615,1362.59C232.015,1362.59 232.99,1362.89 233.542,1363.44C233.966,1363.86 234.178,1364.42 234.178,1365.01C234.178,1365.77 233.881,1366.5 233.33,1367.05C232.524,1367.86 231.082,1368.41 229.131,1368.41Z" style="fill:white;"/>
            </g>
        </g>
        <g transform="matrix(1,0,0,1,-1686,1104.93)">
            <g transform="matrix(1,0,0,1,1686,-1104.93)">
                <path d="M227.449,1287.32C215.315,1303.88 196.561,1321.88 170.099,1327.57C117.22,1338.92 100.757,1346.09 93.884,1356.83C93.884,1356.83 90.225,1345.63 87.253,1333.64C90.385,1331.26 93.82,1329.27 97.355,1327.57C118.87,1317.25 142.332,1314.57 164.939,1309.09C186.527,1303.86 207.828,1296.99 227.449,1287.32ZM86.406,1330.12C84.037,1319.93 82.465,1309.9 84.33,1306.37C88.994,1297.54 115.021,1293.37 138.344,1290.06L138.344,1284.1L155.018,1274.32L155.018,1287.67C155.66,1287.57 156.294,1287.47 156.918,1287.38C161.273,1286.69 165.449,1285.95 169.45,1285.16L169.45,1267.63L186.125,1257.86L186.125,1281.36C227.522,1270.63 245.077,1255.67 245.077,1255.67C245.077,1255.67 240.776,1267.45 231.43,1281.59C201.696,1297.25 168.741,1304.89 136.05,1312.35C118.509,1316.35 100.12,1320.02 86.406,1330.12Z" style="fill:white;"/>
            </g>
        </g>
    </g>
</svg>
